<svg width="1920" height="803" viewBox="0 0 1920 803" fill="none" xmlns="http://www.w3.org/2000/svg">
<g clip-path="url(#clip0)">
<path d="M-1.5 -174L-21.5 497L-29.4991 632.482C-30.8558 655.46 -12.587 674.84 10.4313 674.84H116.243C121.802 674.84 127.3 673.681 132.387 671.437L321.351 588.082C326.437 585.838 331.936 584.679 337.495 584.679H636.275C645.541 584.679 654.519 587.896 661.677 593.78L753.135 668.966C757.836 672.831 763.357 675.572 769.277 676.981L1134.58 763.913C1137.62 764.635 1140.73 765 1143.84 765H1338.56H1577.59C1582.81 765 1587.98 763.978 1592.81 761.992L1787.35 681.966C1798.32 677.45 1810.74 678.042 1821.23 683.582L1902.68 726.566C1922.77 737.171 1947.65 728.93 1957.44 708.427L2025.1 566.756C2027.67 561.374 2029 555.484 2029 549.519V413.191C2029 393.899 2013.36 378.259 1994.07 378.259C1975.81 378.259 1960.63 364.193 1959.24 345.985L1920 -168.5L-1.5 -174Z" fill="#2A8086"/>
<path opacity="0.3" d="M-1.5 -144L-21.5 527L-29.4991 662.482C-30.8558 685.46 -12.587 704.84 10.4313 704.84H116.243C121.802 704.84 127.3 703.681 132.387 701.437L321.351 618.082C326.437 615.838 331.936 614.679 337.495 614.679H636.275C645.541 614.679 654.519 617.896 661.677 623.78L753.135 698.966C757.836 702.831 763.357 705.572 769.277 706.981L1134.58 793.913C1137.62 794.635 1140.73 795 1143.84 795H1338.56H1577.59C1582.81 795 1587.98 793.978 1592.81 791.992L1786.7 712.229C1798.05 707.563 1810.9 708.359 1821.58 714.388L1911.69 765.25C1932.94 777.243 1959.88 767.584 1968.67 744.824L2026.31 595.534C2028.09 590.938 2029 586.053 2029 581.126V443.191C2029 423.899 2013.36 408.259 1994.07 408.259C1975.81 408.259 1960.63 394.193 1959.24 375.985L1920 -138.5L-1.5 -144Z" fill="#2A8086"/>
</g>
<defs>
<clipPath id="clip0">
<rect width="2061" height="803" fill="white" transform="translate(-32)"/>
</clipPath>
</defs>
</svg>
