<svg width="1920" height="523" viewBox="0 0 1920 523" fill="none" xmlns="http://www.w3.org/2000/svg">
<path d="M106.95 173.296L-8.83377 285.477C-16.6103 293.011 -21 303.376 -21 314.204V432.84C-21 454.931 -3.09142 472.84 19 472.84H88.6733H425.5H724.28H954.221C958.757 472.84 963.26 473.611 967.537 475.121L1096.69 520.718C1100.97 522.228 1105.47 523 1110 523H1296.33C1300.46 523 1304.56 522.361 1308.49 521.106L1550.86 443.734C1554.8 442.479 1558.9 441.84 1563.03 441.84H1817H1919.32C1933.39 441.84 1946.42 434.448 1953.64 422.373L1987.33 366.064C1991.04 359.858 1993 352.761 1993 345.53V216.259C1993 194.168 1975.09 176.259 1953 176.259H1938.9C1930.33 176.259 1921.98 173.507 1915.09 168.408L1780.28 68.5969C1772.78 63.0413 1763.57 60.2857 1754.24 60.8077L1572.48 70.9852C1562.4 71.5495 1552.91 75.9045 1545.9 83.1763L1431.51 201.968C1423.97 209.798 1413.57 214.222 1402.7 214.222H1315.22C1306.98 214.222 1298.94 211.677 1292.2 206.936L1198.25 140.838C1191.52 136.096 1183.48 133.552 1175.24 133.552H975.378C966.129 133.552 957.166 136.757 950.014 142.622L810.117 257.349C802.966 263.214 794.002 266.42 784.753 266.42H605.477C596.84 266.42 588.436 263.625 581.52 258.452L463.243 169.991C456.327 164.819 447.922 162.024 439.286 162.024H134.784C124.394 162.024 114.412 166.066 106.95 173.296Z" fill="#2A808D" fill-opacity="0.3"/>
<path d="M106.95 143.296L-8.83377 255.477C-16.6103 263.011 -21 273.376 -21 284.204V402.84C-21 424.931 -3.09142 442.84 19 442.84H88.6733H425.5H724.28H954.221C958.757 442.84 963.26 443.611 967.537 445.121L1096.69 490.718C1100.97 492.228 1105.47 493 1110 493H1296.33C1300.46 493 1304.56 492.361 1308.49 491.106L1550.86 413.734C1554.8 412.479 1558.9 411.84 1563.03 411.84H1817H1917.77C1931.59 411.84 1944.44 404.7 1951.74 392.957L1986.97 336.278C1990.91 329.94 1993 322.625 1993 315.161V186.259C1993 164.168 1975.09 146.259 1953 146.259H1938.9C1930.33 146.259 1921.98 143.507 1915.09 138.408L1780.28 38.5969C1772.78 33.0413 1763.57 30.2857 1754.24 30.8077L1572.48 40.9852C1562.4 41.5495 1552.91 45.9045 1545.9 53.1763L1431.51 171.968C1423.97 179.798 1413.57 184.222 1402.7 184.222H1315.22C1306.98 184.222 1298.94 181.677 1292.2 176.936L1198.25 110.838C1191.52 106.096 1183.48 103.552 1175.24 103.552H975.378C966.129 103.552 957.166 106.757 950.014 112.622L810.117 227.349C802.966 233.214 794.002 236.42 784.753 236.42H605.477C596.84 236.42 588.436 233.625 581.52 228.452L463.243 139.991C456.327 134.819 447.922 132.024 439.286 132.024H134.784C124.394 132.024 114.412 136.066 106.95 143.296Z" fill="#2A8086"/>
<path d="M107.177 104.983L-7.75101 208.365C-16.1841 215.951 -21 226.761 -21 238.104V343.292C-21 365.384 -3.09142 383.292 19 383.292H80.7997C85.9989 383.292 91.1481 382.279 95.9594 380.308L285.778 302.569C290.589 300.599 295.739 299.585 300.938 299.585H601.086C609.856 299.585 618.383 302.467 625.354 307.788L713.532 375.089C720.503 380.41 729.03 383.292 737.8 383.292H950.167C957.308 383.292 964.319 385.204 970.472 388.829L1093.75 461.463C1099.91 465.088 1106.92 467 1114.06 467H1294.61C1299.86 467 1305.05 465.968 1309.9 463.962L1419.71 418.538L1551.9 384.552C1555.15 383.716 1558.5 383.292 1561.86 383.292H1756.25C1764.34 383.292 1772.24 380.839 1778.9 376.256L1915.46 282.39C1922.13 277.807 1930.03 275.354 1938.12 275.354H1953C1975.09 275.354 1993 257.445 1993 235.354V147.939C1993 125.847 1975.09 107.939 1953 107.939H1938.12C1930.03 107.939 1922.13 105.485 1915.46 100.902L1779.85 7.68683C1772.6 2.70181 1763.91 0.247621 1755.12 0.704499L1571.73 10.2382C1562.1 10.7386 1552.98 14.6979 1546.04 21.3878L1431.33 131.98C1423.87 139.168 1413.92 143.184 1403.57 143.184H1314.46C1306.69 143.184 1299.09 140.921 1292.59 136.672L1197.87 74.7992C1191.36 70.5504 1183.76 68.2877 1175.99 68.2877H974.569C965.815 68.2877 957.302 71.1595 950.337 76.4626L809.794 183.471C802.829 188.774 794.316 191.646 785.562 191.646H604.699C596.544 191.646 588.583 189.153 581.885 184.502L462.878 101.866C456.179 97.2145 448.219 94.7217 440.063 94.7217H133.928C124.05 94.7217 114.521 98.3769 107.177 104.983Z" fill="#2A808D" fill-opacity="0.3"/>
</svg>
