<svg width="1920" height="564" viewBox="0 0 1920 564" fill="none" xmlns="http://www.w3.org/2000/svg">
<path d="M1841.56 272.512L1940.33 316.679C1954.73 323.118 1964 337.42 1964 353.194V462.84C1964 484.931 1946.09 502.84 1924 502.84H1742.4C1735.9 502.84 1729.49 504.424 1723.74 507.457L1625.26 559.383C1619.51 562.415 1613.1 564 1606.6 564H1311.64C1302.8 564 1294.2 561.071 1287.2 555.671L1229.52 511.169C1222.52 505.769 1213.93 502.84 1205.08 502.84H990.046C984.687 502.84 979.383 503.916 974.449 506.006L847.326 559.834C842.392 561.923 837.088 563 831.729 563H655.36C645.739 563 636.44 559.532 629.169 553.233L582.274 512.607C575.003 506.307 565.704 502.84 556.083 502.84H187.527C178.957 502.84 170.614 500.087 163.726 494.988L27.905 394.432C21.0172 389.333 12.6738 386.58 4.10388 386.58H-10C-32.0914 386.58 -50 368.672 -50 346.58V246.26C-50 224.168 -32.0914 206.26 -10 206.26H-1.8999C10.2369 206.26 21.7173 200.749 29.309 191.28L142.991 49.4798C150.582 40.0104 162.063 34.5 174.199 34.5H590.95C611.437 34.5 628.612 49.979 630.735 70.3557L636.708 127.696C638.831 148.073 656.006 163.552 676.493 163.552H1015.38C1022.97 163.552 1030.4 161.392 1036.81 157.324L1208.91 48.0917C1215.32 44.0235 1222.75 41.8633 1230.34 41.8633H1395.5H1707.74C1723.93 41.8633 1738.53 51.6315 1744.71 66.6039L1820.92 251.256C1824.82 260.723 1832.21 268.331 1841.56 272.512Z" fill="#2A8086"/>
<path d="M1864.84 240.027L1963.48 284.618C1977.8 291.092 1987 305.351 1987 321.067V432.32C1987 454.411 1969.09 472.32 1947 472.32H1765.95C1759.39 472.32 1752.93 473.933 1747.14 477.018L1649.01 529.302C1643.22 532.387 1636.76 534 1630.2 534H1336.07C1327.16 534 1318.51 531.025 1311.48 525.547L1254.04 480.773C1247.02 475.295 1238.36 472.32 1229.45 472.32H1015.07C1009.67 472.32 1004.31 473.417 999.339 475.545L872.619 529.766C867.646 531.894 862.293 532.991 856.883 532.991H681.107C671.414 532.991 662.052 529.472 654.759 523.088L608.079 482.223C600.786 475.839 591.424 472.32 581.732 472.32H214.193C205.554 472.32 197.148 469.523 190.231 464.349L54.8208 363.044C47.9039 357.869 39.4976 355.072 30.8591 355.072H17C-5.09143 355.072 -23 337.164 -23 315.072V213.219C-23 191.128 -5.09143 173.219 17 173.219H24.8409C37.0492 173.219 48.5891 167.644 56.1768 158.08L169.582 15.1391C177.17 5.5752 188.709 0 200.918 0H616.567C637.07 0 654.254 15.5031 656.356 35.8983L662.371 94.2504C664.474 114.646 681.657 130.149 702.16 130.149H995.436C1002.91 130.149 1010.24 128.053 1016.59 124.1L1193.35 13.9846C1199.7 10.0313 1207.02 7.93576 1214.5 7.93576H1419.63H1731.17C1747.41 7.93576 1762.03 17.7539 1768.19 32.7829L1844.3 218.731C1848.17 228.194 1855.52 235.815 1864.84 240.027Z" fill="#2A808D" fill-opacity="0.3"/>
</svg>
