<svg width="1920" height="493" viewBox="0 0 1920 493" fill="none" xmlns="http://www.w3.org/2000/svg">
<path d="M121.95 143.296L6.16623 255.477C-1.61027 263.011 -6 273.376 -6 284.204V402.84C-6 424.931 11.9086 442.84 34 442.84H103.673H440.5H739.28H969.221C973.757 442.84 978.26 443.611 982.537 445.121L1111.69 490.718C1115.97 492.228 1120.47 493 1125 493H1311.33C1315.46 493 1319.56 492.361 1323.49 491.106L1565.86 413.734C1569.8 412.479 1573.9 411.84 1578.03 411.84H1832H1932.77C1946.59 411.84 1959.44 404.7 1966.74 392.957L2001.97 336.278C2005.91 329.94 2008 322.625 2008 315.161V186.259C2008 164.168 1990.09 146.259 1968 146.259H1953.9C1945.33 146.259 1936.98 143.507 1930.09 138.408L1795.28 38.5969C1787.78 33.0413 1778.57 30.2857 1769.24 30.8077L1587.48 40.9852C1577.4 41.5495 1567.91 45.9045 1560.9 53.1763L1446.51 171.968C1438.97 179.798 1428.57 184.222 1417.7 184.222H1330.22C1321.98 184.222 1313.94 181.677 1307.2 176.936L1213.25 110.838C1206.52 106.096 1198.48 103.552 1190.24 103.552H990.378C981.129 103.552 972.166 106.757 965.014 112.622L825.117 227.349C817.966 233.214 809.002 236.42 799.753 236.42H620.477C611.84 236.42 603.436 233.625 596.52 228.452L478.243 139.991C471.327 134.819 462.922 132.024 454.286 132.024H149.784C139.394 132.024 129.412 136.066 121.95 143.296Z" fill="#2A8086"/>
<path d="M122.177 104.983L7.24899 208.365C-1.18414 215.951 -6 226.761 -6 238.104V343.292C-6 365.384 11.9086 383.292 34 383.292H95.7997C100.999 383.292 106.148 382.279 110.959 380.308L300.778 302.569C305.589 300.599 310.739 299.585 315.938 299.585H616.086C624.856 299.585 633.383 302.467 640.354 307.788L728.532 375.089C735.503 380.41 744.03 383.292 752.8 383.292H965.167C972.308 383.292 979.319 385.204 985.472 388.829L1108.75 461.463C1114.91 465.088 1121.92 467 1129.06 467H1309.61C1314.86 467 1320.05 465.968 1324.9 463.962L1434.71 418.538L1566.9 384.552C1570.15 383.716 1573.5 383.292 1576.86 383.292H1771.25C1779.34 383.292 1787.24 380.839 1793.9 376.256L1930.46 282.39C1937.13 277.807 1945.03 275.354 1953.12 275.354H1968C1990.09 275.354 2008 257.445 2008 235.354V147.939C2008 125.847 1990.09 107.939 1968 107.939H1953.12C1945.03 107.939 1937.13 105.485 1930.46 100.902L1794.85 7.68683C1787.6 2.70181 1778.91 0.247621 1770.12 0.704499L1586.73 10.2382C1577.1 10.7386 1567.98 14.6979 1561.04 21.3878L1446.33 131.98C1438.87 139.168 1428.92 143.184 1418.57 143.184H1329.46C1321.69 143.184 1314.09 140.921 1307.59 136.672L1212.87 74.7992C1206.36 70.5504 1198.76 68.2877 1190.99 68.2877H989.569C980.815 68.2877 972.302 71.1595 965.337 76.4626L824.794 183.471C817.829 188.774 809.316 191.646 800.562 191.646H619.699C611.544 191.646 603.583 189.153 596.885 184.502L477.878 101.866C471.179 97.2145 463.219 94.7217 455.063 94.7217H148.928C139.05 94.7217 129.521 98.3769 122.177 104.983Z" fill="#2A808D" fill-opacity="0.3"/>
</svg>
