<svg width="320" height="291" viewBox="0 0 320 291" fill="none" xmlns="http://www.w3.org/2000/svg">
<path d="M-288.808 79.7306L-353.231 142.148C-357.558 146.341 -360 152.108 -360 158.133V224.142C-360 236.434 -350.036 246.398 -337.744 246.398H-298.977H-111.565H54.6776H182.618C185.142 246.398 187.647 246.828 190.027 247.668L261.888 273.038C264.268 273.879 266.773 274.308 269.297 274.308H372.968C375.265 274.308 377.548 273.952 379.736 273.254L514.594 230.204C516.782 229.505 519.065 229.15 521.362 229.15H662.673H718.74C726.433 229.15 733.58 225.177 737.642 218.643L757.246 187.107C759.438 183.58 760.6 179.51 760.6 175.357V103.636C760.6 91.344 750.636 81.3795 738.344 81.3795H730.497C725.728 81.3795 721.086 79.8481 717.254 77.0107L642.242 21.4755C638.067 18.3843 632.942 16.8511 627.755 17.1416L526.621 22.8043C521.013 23.1184 515.731 25.5415 511.834 29.5876L448.183 95.6839C443.988 100.04 438.2 102.502 432.152 102.502H383.479C378.894 102.502 374.422 101.086 370.672 98.4482L318.399 61.6706C314.65 59.0326 310.177 57.6168 305.593 57.6168H194.39C189.244 57.6168 184.257 59.4003 180.277 62.6637L102.438 126.498C98.4588 129.762 93.4715 131.545 88.3251 131.545H-11.425C-16.2303 131.545 -20.9066 129.99 -24.7548 127.112L-90.5648 77.892C-94.413 75.0139 -99.0893 73.4586 -103.895 73.4586H-273.321C-279.102 73.4586 -284.656 75.708 -288.808 79.7306Z" fill="#2A8086"/>
<path d="M-288.808 96.4227L-353.231 158.841C-357.558 163.033 -360 168.8 -360 174.825V240.834C-360 253.126 -350.036 263.09 -337.744 263.09H-298.977H-111.565H54.6776H182.618C185.142 263.09 187.647 263.52 190.027 264.36L261.888 289.73C264.268 290.571 266.773 291 269.297 291H372.968C375.265 291 377.548 290.644 379.736 289.946L514.594 246.896C516.782 246.197 519.065 245.842 521.362 245.842H662.673H719.603C727.431 245.842 734.684 241.729 738.703 235.011L757.444 203.68C759.51 200.227 760.6 196.278 760.6 192.255V120.328C760.6 108.036 750.636 98.0717 738.344 98.0717H730.497C725.728 98.0717 721.086 96.5402 717.254 93.7029L642.242 38.1677C638.067 35.0765 632.942 33.5433 627.755 33.8337L526.621 39.4965C521.013 39.8105 515.731 42.2336 511.834 46.2797L448.183 112.376C443.988 116.733 438.2 119.194 432.152 119.194H383.479C378.894 119.194 374.422 117.778 370.672 115.14L318.399 78.3627C314.65 75.7247 310.177 74.3089 305.593 74.3089H194.39C189.244 74.3089 184.257 76.0924 180.277 79.3559L102.438 143.19C98.4588 146.454 93.4715 148.237 88.3251 148.237H-11.425C-16.2303 148.237 -20.9066 146.682 -24.7548 143.804L-90.5648 94.5841C-94.413 91.706 -99.0893 90.1507 -103.895 90.1507H-273.321C-279.102 90.1507 -284.656 92.4001 -288.808 96.4227Z" fill="#2A808D" fill-opacity="0.3"/>
<path d="M-288.682 58.4132L-352.628 115.935C-357.32 120.156 -360 126.171 -360 132.482V191.01C-360 203.302 -350.036 213.266 -337.744 213.266H-303.358C-300.465 213.266 -297.6 212.702 -294.923 211.606L-189.307 168.351C-186.63 167.255 -183.765 166.691 -180.872 166.691H-13.8682C-8.98849 166.691 -4.24399 168.294 -0.365021 171.255L48.6974 208.702C52.5764 211.662 57.3209 213.266 62.2006 213.266H180.362C184.336 213.266 188.237 214.33 191.66 216.347L260.255 256.761C263.678 258.778 267.579 259.841 271.552 259.841H372.012C374.932 259.841 377.822 259.267 380.52 258.151L441.617 232.877L515.169 213.967C516.98 213.501 518.842 213.266 520.711 213.266H628.87C633.371 213.266 637.767 211.901 641.477 209.351L717.459 157.123C721.168 154.573 725.564 153.208 730.066 153.208H738.344C750.636 153.208 760.6 143.244 760.6 130.952V82.3139C760.6 70.0221 750.636 60.0577 738.344 60.0577H730.066C725.564 60.0577 721.168 58.6926 717.459 56.1426L642.003 4.277C637.968 1.5033 633.131 0.137777 628.241 0.391987L526.201 5.69659C520.845 5.97502 515.77 8.178 511.909 11.9003L448.083 73.4346C443.935 77.4337 438.398 79.6683 432.636 79.6683H383.059C378.736 79.6683 374.507 78.4094 370.888 76.0453L318.184 41.6187C314.565 39.2546 310.335 37.9957 306.013 37.9957H193.94C189.069 37.9957 184.333 39.5935 180.457 42.5442L102.258 102.084C98.3827 105.035 93.6463 106.633 88.7755 106.633H-11.8577C-16.3954 106.633 -20.8246 105.246 -24.5518 102.658L-90.7679 56.6787C-94.4951 54.0907 -98.9243 52.7037 -103.462 52.7037H-273.797C-279.294 52.7037 -284.596 54.7374 -288.682 58.4132Z" fill="#2A808D" fill-opacity="0.3"/>
</svg>
