<svg width="320" height="531" viewBox="0 0 320 531" fill="none" xmlns="http://www.w3.org/2000/svg">
<path d="M-115.489 -83L-135.496 439.37L-139.138 460.98C-143.251 485.383 -124.441 507.628 -99.6944 507.628H9.73215H215.2H525.163C532.803 507.628 540.283 509.816 546.719 513.933L638.824 572.857C643.926 576.121 649.703 578.184 655.719 578.89L1135.62 635.206C1160.99 638.182 1182.61 616.943 1180.09 591.526L1117.47 -39.0151L-115.489 -83Z" fill="#2A8086"/>
<path opacity="0.3" d="M-115.5 -59L-135.5 463.131L-140.647 530.963C-143.001 561.989 -110.587 583.705 -82.7895 569.725L-14.98 535.622C-9.40407 532.818 -3.24934 531.358 2.99199 531.358H215.064H524.907C532.547 531.358 540.026 533.545 546.462 537.662L638.37 596.455C643.572 599.783 649.475 601.861 655.615 602.526L1137.04 654.695C1162.28 657.43 1183.65 636.259 1181.16 610.992L1117 -37.9903L-115.5 -59Z" fill="#2A8086"/>
</svg>
