<svg width="320" height="905" viewBox="0 0 320 905" fill="none" xmlns="http://www.w3.org/2000/svg">
<path d="M164.889 21H-15.3174C-38.3381 21 -57 39.662 -57 62.6826V788.631C-57 805.685 -46.611 821.019 -30.7724 827.342L83.6628 873.029C88.5791 874.992 93.8242 876 99.1178 876H285.149C294.123 876 302.858 873.104 310.054 867.742L541.639 695.182C555.172 685.098 561.289 667.85 557.133 651.493L429.075 147.51C424.379 129.031 407.743 116.093 388.676 116.093H313.529C304.103 116.093 294.955 112.898 287.578 107.029L190.84 30.0641C183.464 24.1952 174.316 21 164.889 21Z" fill="#2A8086"/>
<path opacity="0.3" d="M168.505 299H-15.3174C-38.3381 299 -57 317.662 -57 340.683V831.567C-57 850.217 -44.6117 866.597 -26.6665 871.675L85.5394 903.425C89.232 904.47 93.0511 905 96.8886 905H288.64C295.425 905 302.107 903.344 308.106 900.176L532.026 781.918C550.371 772.229 558.799 750.524 551.797 730.994L430.992 394.015C425.054 377.45 409.352 366.399 391.755 366.399H309.913C302.74 366.399 295.688 364.548 289.439 361.024L188.979 304.375C182.731 300.851 175.679 299 168.505 299Z" fill="#2A8086"/>
<path opacity="0.3" d="M166.556 0.645752H-14.9326C-37.9533 0.645752 -56.6152 19.3077 -56.6152 42.3283V584.718C-56.6152 602.389 -45.4724 618.14 -28.8092 624.023L84.7035 664.098C89.1608 665.672 93.8532 666.476 98.5801 666.476H292.74C297.042 666.476 301.318 665.81 305.416 664.502L525.604 594.213C547.083 587.356 559.216 564.663 552.99 542.993L429.98 114.881C424.847 97.016 408.506 84.7089 389.918 84.7089H312.426C303.84 84.7089 295.463 82.0575 288.441 77.1169L190.541 8.23785C183.519 3.29725 175.142 0.645752 166.556 0.645752Z" fill="#2A8086"/>
</svg>
