<svg width="310" height="376" viewBox="0 0 310 376" fill="none" xmlns="http://www.w3.org/2000/svg">
<path d="M-64.334 1.63904H644.933V374.969H-64.334V1.63904Z" fill="#2A8086"/>
<path d="M311.538 193.271L311.333 194.003L311.562 194.918L312.23 195.436L312.198 195.992L311.674 196.297L311.577 196.981L310.828 197.995L310.555 197.849L310.523 197.389L309.63 196.686L309.49 195.681L309.626 194.228L309.847 193.563L309.575 193.223L309.467 192.536L310.165 191.465L310.268 191.875L310.701 191.682L311.044 192.266L311.429 192.488L311.538 193.271Z" fill="white" stroke="#2A8086" stroke-width="0.561274"/>
<path d="M304.665 276.638L305.062 277.837L305.525 278.804L305.895 279.325L306.512 280.17L307.577 280.039L308.108 279.811L308.998 280.039L309.24 279.636L309.644 278.695L310.643 278.633L310.73 278.353L311.552 278.347L311.411 278.928L313.366 278.914L313.395 279.93L313.721 280.554L313.484 281.529L313.602 282.526L314.14 283.128L314.053 285.065L314.452 284.915L315.152 284.955L316.15 284.711L316.884 284.807L317.054 285.313L316.87 286.105L317.154 286.872L316.913 287.486L317.051 288.052L313.697 288.032L313.623 293.292L314.71 294.658L315.761 295.705L312.801 296.39L308.902 296.152L307.786 295.348L301.257 295.42L301.013 295.538L300.053 294.78L299.008 294.73L298.044 295.016L297.269 295.334L297.117 294.281L297.34 292.815L297.896 291.296L297.979 290.586L298.502 289.099L298.886 288.426L299.811 287.351L300.328 286.622L300.497 285.412L300.412 284.488L299.931 283.906L299.502 282.92L299.106 281.947L299.192 281.611L299.687 280.969L299.198 279.408L298.869 278.328L298.062 277.309L298.215 276.996L298.88 276.78L299.347 276.81L299.911 276.617L304.665 276.638ZM298.4 276.327L297.991 276.497L297.56 275.288L298.21 274.595L298.697 274.325L299.301 274.876L298.714 275.213L298.451 275.626L298.4 276.327Z" fill="white" stroke="#2A8086" stroke-width="0.561274"/>
<path d="M172.874 373.788L171.344 373.929L170.523 372.937L169.552 372.863L167.828 372.861L167.827 366.79L168.445 368.024L169.251 370.049L171.345 371.695L173.599 372.388L172.874 373.788ZM173.736 303.455L174.683 304.706L175.311 303.313L177.148 303.384L177.408 303.754L180.369 306.595L181.686 306.862L183.654 308.161L185.313 308.851L185.544 309.634L183.958 312.351L185.582 312.842L187.391 313.117L188.665 312.827L190.125 311.45L190.388 309.874L191.186 309.533L191.995 310.561L191.962 311.991L190.606 312.984L189.524 313.72L187.706 315.488L185.557 318L185.154 319.49L184.723 321.423L184.739 323.317L184.39 323.743L184.266 324.987L184.155 325.998L186.2 327.672L185.98 329.033L186.987 329.898L186.905 330.875L185.357 333.469L182.969 334.568L179.738 334.996L177.969 334.789L178.307 336.022L177.978 337.585L178.275 338.649L177.309 339.395L175.658 339.689L174.109 338.915L173.487 339.471L173.712 341.602L174.799 342.254L175.681 341.571L176.161 342.698L174.678 343.376L173.385 344.745L173.148 346.989L172.767 348.199L171.246 348.206L169.983 349.375L169.521 351.105L171.105 352.818L172.645 353.296L172.091 355.436L170.189 356.8L169.142 359.687L167.672 360.674L167.012 361.857L167.532 364.523L168.604 366.036L167.925 365.903L166.432 365.492L162.54 365.143L161.873 363.631L161.904 361.717L160.831 361.88L160.264 360.963L160.123 358.321L161.359 357.243L161.869 355.703L161.682 354.49L162.536 352.468L163.124 349.395L162.951 348.056L163.654 347.626L163.482 346.777L162.734 346.328L163.265 345.391L162.538 344.552L162.162 342.027L162.809 341.586L162.537 338.977L162.915 336.822L163.346 334.971L164.311 334.224L163.821 332.235L163.816 330.387L165.035 329.087L164.998 327.44L165.917 325.537L165.921 323.764L165.503 323.414L164.76 320.143L165.753 318.223L165.601 316.433L166.176 314.77L167.231 313.068L168.368 311.948L167.886 311.244L168.222 310.669L168.171 307.715L169.925 306.848L170.478 305.033L170.283 304.598L171.624 303.034L173.736 303.455Z" fill="white" stroke="#2A8086" stroke-width="0.561274"/>
<path d="M305.722 179.023L305.6 180.002L304.692 180.007L305.005 180.523L304.47 182.044L304.163 182.439L302.754 182.497L301.942 183.027L300.611 182.847L298.308 182.243L297.949 181.425L296.357 181.834L296.169 182.28L295.194 181.947L294.372 181.883L293.643 181.454L293.889 180.876L293.827 180.454L294.313 180.323L295.128 180.983L295.357 180.356L296.778 180.457L297.929 180.03L298.702 180.103L299.204 180.591L299.354 180.186L299.126 178.624L299.704 178.317L300.272 177.196L301.469 177.98L302.375 176.983L302.942 176.8L304.192 177.546L304.949 177.419L305.691 177.879L305.562 178.186L305.722 179.023Z" fill="white" stroke="#2A8086" stroke-width="0.561274"/>
<path d="M308.986 186.636L309.569 186.63L309.166 187.622L309.943 188.484L309.708 189.53L309.329 189.628L309.028 189.83L308.504 190.343L308.268 191.549L306.842 190.72L306.234 189.799L305.621 189.309L304.88 188.478L304.531 187.784L303.742 186.73L304.079 185.788L304.657 186.31L305.006 185.838L305.758 185.788L307.143 186.166L308.257 186.134L308.986 186.636Z" fill="white" stroke="#2A8086" stroke-width="0.561274"/>
<path d="M283.707 171.011L284.886 171.213L286.378 170.679L287.398 171.802L288.283 172.397L288.101 174.102L287.681 174.197L287.506 175.593L286.097 174.46L285.271 174.654L284.146 173.472L283.398 172.456L282.649 172.415L282.416 171.518L283.707 171.011Z" fill="white" stroke="#2A8086" stroke-width="0.561274"/>
<path d="M273.814 251.717L272.711 251.298L271.957 251.359L271.394 251.768L270.669 251.425L270.388 250.888L269.663 250.533L269.557 249.588L269.996 248.896L269.959 248.343L271.237 246.987L271.474 245.861L271.915 245.459L272.694 245.681L273.369 245.346L273.588 244.923L274.837 244.183L275.145 243.667L276.65 242.98L277.537 242.744L277.939 243.062L278.972 243.055L278.844 243.857L279.06 244.609L279.967 245.684L280.018 246.479L281.874 246.852L281.838 247.973L281.486 248.462L280.699 248.615L280.37 249.328L279.817 249.512L278.406 249.478L277.661 249.348L277.142 249.611L276.43 249.492L273.632 249.569L273.594 250.493L273.814 251.717Z" fill="white" stroke="#2A8086" stroke-width="0.561274"/>
<path d="M282.709 257.184L281.378 257.372L280.981 256.261L281.054 252.55L280.73 252.216L280.669 251.42L280.109 250.85L279.617 250.37L279.822 249.513L280.376 249.328L280.705 248.615L281.492 248.462L281.844 247.973L282.384 247.494L282.962 247.489L284.19 248.431L284.127 248.973L284.489 249.941L284.172 250.596L284.342 251.033L283.56 252.038L283.064 252.535L282.761 253.557L282.801 254.585L282.709 257.184Z" fill="white" stroke="#2A8086" stroke-width="0.561274"/>
<path d="M177.149 303.385L175.312 303.313L174.684 304.706L173.737 303.455L171.629 303.035L170.288 304.598L169.125 304.837L168.495 302.453L167.629 300.53L168.136 298.882L167.291 298.164L167.076 296.945L166.287 295.801L167.303 293.994L166.61 292.594L166.979 292.035L166.691 291.421L167.321 290.594L167.352 289.19L167.431 288.034L167.777 287.479L166.385 284.848L167.582 284.986L168.412 284.95L168.771 284.457L170.18 283.798L171.028 283.187L173.136 282.913L172.964 284.131L173.162 284.757L173.033 285.85L174.781 287.316L176.585 287.587L177.219 288.2L178.308 288.526L178.974 289.004L179.987 288.987L180.923 289.475L180.994 290.429L181.308 290.912L181.329 291.626L180.859 291.653L181.479 293.589L184.566 293.658L184.33 294.623L184.503 295.284L185.383 295.754L185.763 296.8L185.477 298.131L185.036 298.874L185.191 299.843L184.687 300.195L184.659 299.67L183.159 298.8L181.663 298.776L178.856 299.271L178.084 300.77L178.044 301.692L177.409 303.755L177.149 303.385Z" fill="white" stroke="#2A8086" stroke-width="0.561274"/>
<path d="M185.557 318.001L187.705 315.489L189.523 313.721L190.605 312.985L191.961 311.992L191.994 310.562L191.186 309.535L190.388 309.875L190.704 308.851L190.922 307.807L190.923 306.841L190.344 306.523L189.74 306.807L189.139 306.729L188.951 306.055L188.801 304.46L188.499 303.941L187.412 303.473L186.754 303.812L185.054 303.48L185.161 301.145L184.685 300.195L185.188 299.843L185.033 298.874L185.474 298.131L185.761 296.801L185.38 295.754L184.5 295.284L184.328 294.623L184.564 293.658L181.476 293.589L180.857 291.654L181.326 291.626L181.306 290.912L180.992 290.429L180.921 289.475L179.985 288.987L178.972 289.004L178.306 288.526L177.217 288.2L176.583 287.587L174.779 287.317L173.03 285.851L173.16 284.757L172.962 284.131L173.133 282.913L171.026 283.187L170.177 283.798L168.769 284.458L168.41 284.95L167.58 284.986L166.382 284.848L165.474 285.129L164.741 284.941L164.849 282.471L163.528 283.428L162.106 283.386L161.497 282.52L160.428 282.426L160.768 281.73L159.874 280.745L159.203 279.29L159.628 278.995L159.626 278.314L160.6 277.849L160.439 276.978L160.85 276.418L160.967 275.668L162.809 274.576L164.129 274.266L164.345 274.025L165.797 274.1L166.52 269.708L166.558 269.014L166.306 268.098L165.591 267.514L165.6 266.351L166.507 266.088L166.829 266.254L166.883 265.641L165.94 265.475L165.92 264.473L169.058 264.51L169.591 263.958L170.038 264.465L170.352 265.409L170.656 265.212L171.543 266.058L172.795 265.955L173.107 265.465L174.305 265.092L174.968 264.829L175.155 264.151L176.305 263.696L176.219 263.359L174.854 263.222L174.63 262.212L174.695 261.138L173.974 260.722L174.276 260.575L175.469 260.78L176.749 261.181L177.214 260.802L178.373 260.553L180.174 259.952L180.763 259.34L180.55 258.886L181.387 258.815L181.762 259.185L181.552 259.891L182.106 260.134L182.475 260.879L182.029 261.444L181.772 262.808L182.185 263.618L182.301 264.359L183.292 265.109L184.083 265.189L184.261 264.876L184.77 264.806L185.499 264.525L186.023 264.099L186.913 264.236L187.305 264.178L188.181 264.309L188.326 263.982L188.056 263.663L188.217 263.2L188.867 263.342L189.628 263.179L190.55 263.518L191.253 263.848L191.752 263.414L192.112 263.481L192.332 263.932L193.103 263.817L193.721 263.209L194.215 262.03L195.168 260.562L195.716 260.486L196.115 261.373L197.018 264.175L197.879 264.439L197.923 265.544L196.712 266.861L197.213 267.343L200.059 267.594L200.118 269.198L201.341 268.148L203.368 268.723L206.043 269.701L206.829 270.638L206.565 271.525L208.438 271.031L211.572 271.879L213.979 271.816L216.36 273.142L218.416 274.94L219.657 275.403L221.035 275.468L221.618 275.974L222.165 278.023L222.432 278.999L221.791 281.671L220.971 282.73L218.701 284.993L217.675 286.84L216.483 288.262L216.08 288.294L215.63 289.505L215.745 292.605L215.295 295.178L215.124 296.285L214.615 296.949L214.33 299.212L212.697 301.44L212.423 303.216L211.119 303.966L210.742 305.006L208.992 305.002L206.458 305.671L205.324 306.448L203.52 306.96L201.624 308.362L200.261 310.12L200.027 311.454L200.294 312.446L199.993 314.274L199.628 315.163L198.502 316.171L196.715 319.431L195.299 320.921L194.204 321.805L193.47 323.616L192.404 324.716L191.958 323.627L192.668 322.721L191.736 321.43L190.473 320.387L188.815 319.187L188.217 319.242L186.602 317.803L185.557 318.001Z" fill="white" stroke="#2A8086" stroke-width="0.561274"/>
<path d="M153.49 228.051L153.095 228.138L152.686 227.128L152.082 226.619L152.433 225.498L152.918 225.569L153.481 227.033L153.49 228.051ZM153.03 223.059L151.275 223.346L151.162 222.683L151.919 222.54L152.983 222.594L153.03 223.059ZM154.351 223.041L154.073 224.311L153.776 224.082L153.803 223.149L153.081 222.44L153.078 222.234L154.351 223.041Z" fill="white" stroke="#2A8086" stroke-width="0.561274"/>
<path d="M134.793 238.25L134.78 238.002L134.975 237.925L135.267 238.124L135.845 237.107L136.151 237.085L136.156 237.333L136.461 237.34L136.435 237.798L136.174 238.526L136.315 238.786L136.147 239.386L136.248 239.546L136.062 240.391L135.745 240.833L135.454 240.887L135.135 241.463L134.654 241.464L134.78 239.58L134.793 238.25Z" fill="white" stroke="#2A8086" stroke-width="0.561274"/>
<path d="M302.981 255.31L304.313 255.188L304.609 254.773L304.876 254.804L305.279 255.17L307.306 254.552L307.99 253.921L308.83 253.356L308.671 252.786L309.125 252.637L310.681 252.738L312.196 251.987L313.36 250.214L314.178 249.555L315.197 249.276L315.38 249.974L316.309 250.991L316.314 251.654L316.052 252.329L316.155 252.832L316.714 253.299L317.94 254.006L318.822 254.658L318.837 255.183L319.92 256.023L320.591 256.721L320.998 257.686L322.202 258.323L322.461 258.832L321.93 259.002L320.896 258.966L319.685 258.797L319.086 258.934L318.845 259.325L318.323 259.373L317.688 259.033L315.895 259.835L315.161 259.673L314.939 259.797L314.458 260.766L313.256 260.453L312.078 260.295L311.052 259.703L309.727 259.157L308.864 259.674L308.237 260.489L308.093 261.607L307.056 261.518L305.967 261.248L305.007 262.098L304.162 263.589L303.992 263.125L303.92 262.394L303.184 261.879L302.589 261.051L302.452 260.475L301.691 259.637L301.82 259.159L301.66 258.482L301.784 257.235L302.171 256.943L302.981 255.31Z" fill="white" stroke="#2A8086" stroke-width="0.561274"/>
<path d="M299.305 274.876L298.702 274.325L298.215 274.595L297.565 275.289L296.242 273.589L297.469 272.704L296.861 271.645L297.413 271.242L298.5 271.045L298.628 270.336L299.489 271.105L300.911 271.172L301.405 270.416L301.609 269.351L301.433 268.102L300.671 267.156L301.368 265.303L300.966 264.985L299.768 265.115L299.318 264.288L299.435 263.59L301.467 263.653L302.77 264.075L304.049 264.454L304.165 263.589L305.01 262.099L305.97 261.249L307.059 261.518L308.096 261.608L308 262.576L307.518 263.432L307.202 264.431L307.002 265.849L307.086 266.756L306.824 267.311L306.784 267.897L306.599 268.408L305.538 269.179L304.8 270.003L304.101 271.559L304.155 272.877L303.748 273.39L302.809 274.174L301.862 275.18L301.26 274.895L301.157 274.441L300.279 274.425L299.728 275.039L299.305 274.876Z" fill="white" stroke="#2A8086" stroke-width="0.561274"/>
<path d="M293.823 180.454L293.885 180.875L293.638 181.454L294.367 181.883L295.189 181.947L295.062 182.906L294.352 183.299L293.16 183.007L292.811 183.943L292.044 184.017L291.765 183.65L290.862 184.433L290.085 184.543L289.392 184.049L288.839 183.032L288.07 183.396L288.094 182.34L289.271 181.017L289.22 180.414L289.954 180.633L290.396 180.227L291.766 180.243L292.097 179.725L293.823 180.454Z" fill="white" stroke="#2A8086" stroke-width="0.561274"/>
<path d="M273.775 259.216L273.042 259.233L271.919 258.919L270.886 258.937L268.978 259.218L267.86 259.681L266.265 260.27L265.954 260.228L266.078 258.906L266.232 258.704L266.183 258.071L265.501 257.397L264.989 257.29L264.52 256.847L264.869 256.132L264.709 255.352L264.783 254.883L265.038 254.881L265.133 254.177L265.008 253.864L265.162 253.64L265.761 253.445L265.363 252.149L264.992 251.478L265.121 250.926L265.442 250.8L265.652 250.652L266.098 250.897L267.342 250.91L267.638 250.435L267.916 250.467L268.381 250.283L268.631 250.979L269.006 250.774L269.671 250.533L270.395 250.888L270.677 251.425L271.401 251.768L271.964 251.359L272.719 251.298L273.821 251.717L274.249 254.021L273.57 255.377L273.15 257.197L273.848 258.583L273.775 259.216Z" fill="white" stroke="#2A8086" stroke-width="0.561274"/>
<path d="M167.827 366.791L167.828 372.862L169.552 372.863L170.522 372.938L169.989 374.074L168.608 374.954L167.816 374.864L166.863 374.634L165.693 373.785L164.006 373.379L161.979 371.822L160.334 370.344L158.116 367.326L159.444 367.885L161.705 369.685L163.842 370.664L164.673 369.415L165.195 367.576L166.679 366.48L167.827 366.791ZM168.494 302.453L169.125 304.837L170.287 304.598L170.482 305.034L169.93 306.848L168.175 307.715L168.226 310.67L167.89 311.245L168.372 311.948L167.235 313.068L166.181 314.77L165.605 316.434L165.757 318.223L164.765 320.144L165.507 323.415L165.925 323.764L165.921 325.537L165.002 327.44L165.039 329.088L163.82 330.388L163.825 332.236L164.315 334.224L163.351 334.971L162.92 336.823L162.541 338.977L162.813 341.587L162.166 342.028L162.542 344.552L163.27 345.392L162.739 346.328L163.486 346.778L163.658 347.627L162.955 348.056L163.128 349.395L162.54 352.469L161.686 354.491L161.874 355.704L161.363 357.243L160.127 358.322L160.268 360.964L160.836 361.881L161.908 361.718L161.877 363.632L162.545 365.144L166.436 365.493L167.929 365.904L166.496 365.884L165.721 366.532L164.267 367.491L164.008 370.006L163.326 370.069L161.508 369.187L159.665 367.32L157.661 365.808L157.157 364.157L157.613 362.65L156.803 360.963L156.596 356.744L157.281 354.427L158.982 352.597L156.537 351.913L158.071 349.863L158.619 346.096L160.409 346.886L161.251 342.307L160.17 341.731L159.667 344.459L158.651 344.148L159.157 341.035L159.706 337.104L160.446 335.681L159.983 333.673L159.85 331.388L160.529 331.323L161.517 328.108L162.63 324.988L163.312 322.134L162.941 319.313L163.422 317.778L163.229 315.506L164.171 313.285L164.461 309.817L164.978 306.155L165.482 302.279L165.364 299.479L165.028 297.094L165.857 296.664L166.288 295.801L167.077 296.946L167.293 298.165L168.138 298.883L167.631 300.53L168.494 302.453Z" fill="white" stroke="#2A8086" stroke-width="0.561274"/>
<path d="M299.433 263.589L299.232 263.502L298.279 263.708L297.3 263.494L296.535 263.599L293.914 263.562L294.149 262.298L293.52 261.239L292.785 260.966L292.457 260.248L292.045 260.018L292.063 259.574L292.478 258.437L293.244 256.885L293.71 256.871L294.67 255.927L295.28 255.901L296.184 256.563L297.291 256.02L297.442 255.35L297.804 254.7L298.053 253.882L298.914 253.215L299.239 252.081L299.581 251.72L299.808 250.875L300.234 249.837L301.59 248.575L301.676 248.031L301.851 247.736L301.214 247.083L301.265 246.561L301.72 246.467L302.361 247.517L302.468 248.602L302.41 249.686L303.286 251.165L302.387 251.149L301.932 251.265L301.198 251.102L300.848 251.868L301.799 252.814L302.5 253.089L302.727 253.758L303.235 254.873L302.982 255.31L302.172 256.943L301.786 257.235L301.662 258.482L301.822 259.159L301.692 259.637L302.453 260.475L302.59 261.051L303.185 261.879L303.921 262.394L303.994 263.125L304.163 263.589L304.048 264.453L302.768 264.075L301.466 263.652L299.433 263.589Z" fill="white" stroke="#2A8086" stroke-width="0.561274"/>
<path d="M144.744 254.013L143.87 253.654L143.544 253.315L143.729 253.033L143.67 252.675L143.224 252.287L142.59 251.969L142.036 251.761L141.93 251.286L141.507 250.996L141.611 251.468L141.289 251.856L140.921 251.405L140.404 251.245L140.183 250.917L140.193 250.422L140.406 249.909L139.951 249.68L140.321 249.365L140.563 249.154L141.624 249.586L141.994 249.374L142.505 249.51L142.772 249.846L143.247 249.954L143.633 249.608L144.041 250.494L144.664 251.148L145.42 251.841L144.797 251.986L144.806 252.638L145.142 252.879L144.901 253.071L144.964 253.364L144.829 253.692L144.744 254.013Z" fill="white" stroke="#2A8086" stroke-width="0.561274"/>
<path d="M145.865 229.049L147.257 229.173L148.522 229.192L150.035 229.785L150.676 230.42L152.18 230.224L152.75 230.631L154.115 231.701L155.117 232.476L155.647 232.453L156.608 232.803L156.491 233.285L157.678 233.356L158.896 234.056L158.705 234.455L157.634 234.672L156.55 234.756L155.44 234.621L153.134 234.787L154.214 233.836L153.557 233.392L152.518 233.277L151.962 232.783L151.58 231.804L150.67 231.871L149.168 231.409L148.685 231.047L146.586 230.778L146.023 230.441L146.628 230.008L145.048 229.919L143.89 230.819L143.223 230.843L142.992 231.265L142.195 231.453L141.506 231.29L142.356 230.757L142.705 230.132L143.433 229.746L144.256 229.407L145.475 229.24L145.865 229.049Z" fill="white" stroke="#2A8086" stroke-width="0.561274"/>
<path d="M305.687 177.879L304.945 177.419L304.188 177.546L302.937 176.8L302.37 176.983L301.465 177.98L300.268 177.196L299.359 176.142L298.537 175.548L298.366 174.5L298.084 173.755L299.255 173.207L299.853 172.577L301.01 172.084L301.413 171.598L301.838 171.891L302.557 171.625L303.321 172.446L304.525 172.667L304.424 173.362L305.299 173.882L305.539 173.233L306.644 173.515L306.797 174.3L307.994 174.452L308.735 175.675L308.255 175.678L308.006 176.123L307.636 176.229L307.531 176.788L307.222 176.904L307.178 177.132L306.629 177.384L305.915 177.343L305.687 177.879Z" fill="white" stroke="#2A8086" stroke-width="0.561274"/>
<path d="M294.351 161.256L294.379 162.333L296.007 162.977L295.99 163.952L297.627 163.437L298.533 162.682L300.352 163.769L301.112 164.638L301.488 166.013L301.039 166.728L301.624 167.675L302.023 169.082L301.897 169.98L302.557 171.625L301.838 171.891L301.414 171.598L301.01 172.084L299.853 172.577L299.255 173.207L298.084 173.755L298.366 174.5L298.537 175.548L299.359 176.142L300.268 177.196L299.7 178.317L299.122 178.624L299.35 180.186L299.2 180.591L298.698 180.103L297.925 180.03L296.774 180.457L295.353 180.356L295.124 180.982L294.309 180.323L293.823 180.454L292.097 179.725L291.766 180.244L290.396 180.227L290.601 178.518L291.415 176.852L289.094 176.401L288.334 175.756L288.425 174.667L288.104 174.102L288.286 172.397L288.016 169.703L288.984 169.702L289.391 168.719L289.793 166.292L289.492 165.383L289.807 164.81L291.153 164.662L291.451 165.259L292.545 163.919L292.177 162.889L292.103 161.312L293.32 161.681L294.351 161.256Z" fill="white" stroke="#2A8086" stroke-width="0.561274"/>
<path d="M298.813 159.486L297.847 161.767L296.161 160.181L295.937 159.001L298.299 158.05L298.813 159.486ZM295.95 157.044L295.556 158.136L295.077 157.823L293.917 159.884L294.355 161.256L293.324 161.682L292.107 161.313L291.453 159.749L291.404 156.808L291.673 156.018L292.134 155.133L293.553 154.949L294.119 154.128L295.414 153.282L295.36 154.819L294.883 155.782L295.076 156.603L295.95 157.044Z" fill="white" stroke="#2A8086" stroke-width="0.561274"/>
<path d="M162.869 235.028L163.071 234.738L164.328 234.745L165.282 235.184L165.706 235.141L165.999 235.743L166.881 235.709L166.828 236.214L167.545 236.276L168.337 236.896L167.738 237.583L166.972 237.216L166.233 237.287L165.703 237.206L165.413 237.514L164.794 237.618L164.549 237.209L164.017 237.451L163.372 238.603L162.957 238.336L162.876 237.853L162.909 237.395L162.494 236.888L162.887 236.603L163.01 235.952L162.869 235.028Z" fill="white" stroke="#2A8086" stroke-width="0.561274"/>
<path d="M297.699 228.556L292.18 231.86L287.517 235.22L285.245 235.977L283.459 236.143L283.441 235.063L282.694 234.787L281.692 234.299L281.309 233.499L275.876 229.738L270.443 225.916L264.385 221.593L264.416 221.244L264.415 221.123L264.401 218.967L267.002 217.612L268.611 217.331L269.929 216.834L270.545 215.905L272.428 215.168L272.498 213.78L273.429 213.615L274.158 212.917L276.266 212.598L276.561 211.86L276.137 211.455L275.581 209.428L275.485 208.248L274.877 206.997L276.426 205.921L278.167 205.578L279.184 204.759L280.735 204.152L283.465 203.796L286.129 203.633L286.941 203.93L288.458 203.14L290.179 203.124L290.834 203.592L291.935 203.469L291.608 204.496L291.864 206.385L291.484 208L290.492 209.084L290.634 210.536L291.951 211.675L291.965 212.136L292.958 212.901L293.644 216.266L294.166 217.897L294.253 218.75L293.969 220.238L294.086 221.065L293.881 222.053L294.022 223.181L293.382 223.928L294.335 225.224L294.395 225.982L294.968 226.965L295.721 226.643L296.992 227.459L297.699 228.556Z" fill="white" stroke="#2A8086" stroke-width="0.561274"/>
<path d="M149.029 272.668L149.886 271.47L149.537 270.771L148.922 271.514L147.957 270.813L148.284 270.362L148.012 268.909L148.576 268.668L148.873 267.671L149.482 266.641L149.37 265.988L150.252 265.644L151.359 265.008L152.971 265.921L153.271 265.896L153.664 266.584L155.03 266.806L155.488 266.552L156.278 267.081L156.968 267.461L157.193 268.676L156.691 269.716L154.935 271.392L152.998 272.024L152.011 273.419L151.706 274.5L150.796 275.161L150.12 274.35L149.47 274.177L148.804 274.305L148.76 273.717L149.22 273.335L149.029 272.668Z" fill="white" stroke="#2A8086" stroke-width="0.561274"/>
<path d="M257.208 221.152L256.187 222.99L255.114 223.642L254.532 224.743L254.494 225.687L254.068 226.717L253.526 227.001L252.629 228.116L252.075 229.347L252.179 229.935L251.652 230.837L251.034 231.308L250.958 232.107L250.889 232.832L251.24 232.259L257.547 232.27L257.242 229.775L257.636 228.881L259.145 228.724L259.093 224.214L264.379 224.308L264.384 221.593L264.415 221.243L264.414 221.126L257.228 221.134L257.208 221.152Z" fill="white" stroke="#2A8086" stroke-width="0.561274"/>
<path d="M263.819 193.217L263.9 191.673L263.242 190.724L265.52 189.13L267.491 189.531L269.654 189.517L271.368 189.894L272.705 189.778L275.308 189.852L275.95 190.708L278.915 191.702L279.501 191.23L281.313 192.215L283.18 191.934L283.266 193.192L281.74 194.62L279.676 195.07L279.532 195.784L278.542 196.952L277.922 198.65L278.55 199.83L277.618 200.744L277.27 202.066L276.054 202.47L274.913 204.015L272.869 204.045L271.334 204.008L270.325 204.712L269.71 205.462L268.922 205.298L268.325 204.626L267.869 203.477L266.365 203.165L266.231 202.498L266.828 201.739L267.049 201.186L266.494 200.579L266.938 199.229L266.293 197.985L266.989 197.813L267.054 196.825L267.315 196.517L267.336 194.865L268.08 194.287L267.63 193.211L266.691 193.135L266.415 193.407L265.464 193.41L265.061 192.352L264.403 192.668L263.819 193.217Z" fill="white" stroke="#2A8086" stroke-width="0.561274"/>
<path d="M179.799 364.728L181.732 363.178L183.101 363.821L184.067 362.794L185.356 363.95L184.872 364.858L182.698 365.642L181.973 364.728L180.604 365.904L179.799 364.728Z" fill="white" stroke="#2A8086" stroke-width="0.561274"/>
<path d="M293.77 192.63L293.238 194.291L292.507 193.855L292.134 192.404L292.459 191.596L293.497 190.76L293.77 192.63ZM284.151 173.472L285.275 174.654L286.102 174.46L287.511 175.593L287.871 175.808L288.336 175.755L289.096 176.401L291.417 176.853L290.603 178.518L290.398 180.227L289.956 180.633L289.222 180.414L289.273 181.017L288.095 182.34L288.072 183.396L288.841 183.032L289.394 184.049L289.327 184.701L289.801 185.561L289.243 186.255L289.658 188.001L290.531 188.285L290.347 189.252L288.888 190.5L285.711 189.903L283.366 190.618L283.181 191.935L281.314 192.216L279.502 191.23L278.916 191.702L275.952 190.708L275.309 189.852L276.142 188.52L276.449 183.995L274.787 181.545L273.599 180.347L271.137 179.428L270.975 177.667L273.063 177.137L275.768 177.764L275.257 174.981L276.778 176.043L280.528 174.105L281.011 172.034L282.42 171.518L282.653 172.415L283.401 172.457L284.151 173.472Z" fill="white" stroke="#2A8086" stroke-width="0.561274"/>
<path d="M296.241 273.588L294.586 271.97L293.521 270.648L292.543 268.995L292.595 268.464L292.947 267.953L293.338 266.788L293.663 265.601L294.205 265.509L296.549 265.525L296.535 263.599L297.3 263.494L298.279 263.708L299.232 263.502L299.433 263.589L299.316 264.288L299.767 265.115L300.965 264.984L301.366 265.302L300.669 267.155L301.431 268.101L301.607 269.351L301.404 270.415L300.909 271.172L299.487 271.104L298.627 270.335L298.499 271.045L297.412 271.241L296.86 271.644L297.467 272.703L296.241 273.588Z" fill="white" stroke="#2A8086" stroke-width="0.561274"/>
<path d="M269.252 162.449L268.389 164.337L267.172 163.774L266.176 163.812L266.508 162.335L266.176 160.839L267.526 160.723L269.252 162.449ZM273.531 150.523L271.81 153.813L273.45 153.402L275.215 153.418L274.795 155.841L273.347 158.446L275.012 158.628L275.14 158.929L276.575 162.254L277.677 162.698L278.669 165.805L279.128 166.863L281.079 167.37L280.883 169.054L280.063 169.819L280.706 171.156L279.257 172.493L277.103 172.47L274.361 173.166L273.61 172.668L272.545 173.85L271.054 173.564L269.923 174.522L269.066 174.022L271.428 171.359L272.87 170.804L272.858 170.802L270.342 170.372L269.887 169.338L271.57 168.527L270.687 167.103L270.994 165.347L273.387 165.591H273.39L273.627 164.016L272.549 162.32L272.524 162.281L270.569 161.791L270.185 161.034L270.77 159.773L270.241 158.989L269.373 160.332L269.279 157.576L268.465 156.09L269.05 153.013L270.301 150.537L271.588 150.781L273.531 150.523Z" fill="white" stroke="#2A8086" stroke-width="0.561274"/>
<path d="M280.078 257.715L277.553 258.656L276.657 259.207L275.206 259.672L273.77 259.216L273.843 258.583L273.145 257.197L273.564 255.377L274.243 254.021L273.816 251.717L273.596 250.493L273.634 249.569L276.432 249.492L277.144 249.611L277.664 249.348L278.409 249.478L278.29 249.986L278.962 250.825L278.96 252.004L279.113 253.281L279.517 253.871L279.161 255.326L279.289 256.128L279.718 257.15L280.078 257.715Z" fill="white" stroke="#2A8086" stroke-width="0.561274"/>
<path d="M264.776 254.883L264.321 254.842L263.993 255.492L263.537 255.484L263.224 255.14L263.331 254.492L262.657 253.501L262.236 253.683L261.892 253.72L261.449 253.812L261.467 253.219L261.208 252.795L261.26 252.324L260.911 251.642L260.463 251.061L259.175 251.059L258.799 251.366L258.356 251.402L258.081 251.753L257.895 252.203L257.034 252.915L256.328 251.956L255.701 251.321L255.289 251.111L254.887 250.787L254.704 250.069L254.468 249.71L254 249.442L254.716 248.647L255.205 248.677L255.625 248.403L255.98 248.4L256.234 248.184L256.097 247.642L256.274 247.471L256.303 246.915L257.08 246.932L258.238 247.332L258.593 247.295L258.714 247.112L259.592 247.242L259.825 247.15L259.917 247.75L260.173 247.748L260.593 247.53L260.861 247.584L261.307 247.999L261.997 248.13L262.439 247.777L262.959 247.557L263.346 247.328L263.668 247.371L264.026 247.731L264.218 248.182L264.878 248.866L264.548 249.286L264.485 249.816L264.828 249.656L265.029 249.846L264.944 250.331L265.436 250.8L265.115 250.926L264.986 251.478L265.357 252.149L265.755 253.445L265.156 253.64L265.002 253.864L265.127 254.177L265.032 254.881L264.776 254.883Z" fill="white" stroke="#2A8086" stroke-width="0.561274"/>
<path d="M293.661 265.602L293.359 265.36L293.913 263.562L296.534 263.599L296.548 265.525L294.204 265.509L293.661 265.602Z" fill="white" stroke="#2A8086" stroke-width="0.561274"/>
<path d="M133.257 245.026L132.431 244.739L131.426 244.709L130.689 244.381L129.823 243.7L129.862 243.218L130.049 242.83L129.82 242.52L130.595 241.165L132.663 241.159L132.704 240.592L132.443 240.491L132.264 240.129L131.669 239.743L131.069 239.183L131.796 239.179L131.798 238.234L133.301 238.231L134.791 238.25L134.778 239.58L134.652 241.464L135.133 241.463L135.658 241.764L135.797 241.517L136.27 241.729L135.535 242.362L134.772 242.826L134.659 243.145L134.787 243.47L134.452 243.89L134.075 243.991L134.161 244.186L133.859 244.368L133.307 244.785L133.257 245.026Z" fill="white" stroke="#2A8086" stroke-width="0.561274"/>
<path d="M254.002 249.442L253.142 248.76L252.463 248.652L252.094 248.192L252.103 247.943L251.612 247.595L251.51 247.245L252.363 246.978L252.896 247.031L253.328 246.846L256.305 246.915L256.275 247.471L256.098 247.642L256.236 248.184L255.982 248.4L255.627 248.403L255.206 248.677L254.718 248.647L254.002 249.442Z" fill="white" stroke="#2A8086" stroke-width="0.561274"/>
<path d="M182.122 253.783L183.18 254.378L184.176 255.43L184.221 256.26L184.829 256.298L185.691 257.084L186.327 257.644L186.07 259.09L185.092 259.509L185.179 259.888L184.882 260.716L185.596 261.88L186.112 261.882L186.323 262.786L187.307 264.178L186.914 264.236L186.024 264.1L185.5 264.525L184.772 264.806L184.262 264.876L184.084 265.189L183.294 265.109L182.303 264.359L182.186 263.618L181.774 262.808L182.03 261.444L182.477 260.879L182.107 260.134L181.554 259.891L181.763 259.185L181.389 258.815L180.551 258.887L179.461 257.666L179.898 257.224L179.865 256.48L180.857 256.222L181.257 255.92L180.705 255.321L180.846 254.732L182.122 253.783Z" fill="white" stroke="#2A8086" stroke-width="0.561274"/>
<path d="M137.734 246.261L137.456 245.747L136.966 245.604L137.078 244.944L136.859 244.766L136.528 244.649L135.821 244.844L135.762 244.623L135.275 244.358L134.928 244.029L134.453 243.89L134.788 243.47L134.66 243.145L134.773 242.826L135.537 242.362L136.271 241.729L136.438 241.794L136.791 241.501L137.252 241.478L137.402 241.613L137.652 241.53L138.4 241.68L139.144 241.637L139.662 241.453L139.851 241.266L140.365 241.352L140.75 241.466L141.171 241.427L141.491 241.282L142.227 241.513L142.483 241.55L142.974 241.861L143.44 242.234L144.025 242.487L144.45 242.944L143.897 242.91L143.674 243.135L143.115 243.351L142.708 243.353L142.352 243.563L142.029 243.488L141.755 243.235L141.587 243.284L141.38 243.679L141.225 243.665L141.199 244.005L140.636 244.46L140.34 244.655L140.175 244.86L139.699 244.527L139.352 244.967L139.016 244.955L138.638 244.994L138.672 245.803L138.436 245.818L138.235 246.194L137.734 246.261Z" fill="white" stroke="#2A8086" stroke-width="0.561274"/>
<path d="M308.701 184.239L309.092 185.129L309.604 185.781L308.984 186.636L308.255 186.134L307.142 186.165L305.757 185.787L305.004 185.838L304.656 186.31L304.077 185.787L303.741 186.73L304.529 187.783L304.879 188.478L305.619 189.309L306.232 189.799L306.841 190.719L308.266 191.548L308.089 191.919L306.575 191.11L305.641 190.321L304.168 189.665L302.813 188.026L303.139 187.858L302.404 186.911L302.374 186.146L301.338 185.787L300.845 186.767L300.369 186.008L300.405 185.215L300.463 185.178L301.585 185.256L301.88 184.869L302.428 185.244L303.06 185.288L303.054 184.647L303.614 184.411L303.77 183.477L305.053 182.859L305.564 183.146L306.768 184.14L308.099 184.583L308.701 184.239Z" fill="white" stroke="#2A8086" stroke-width="0.561274"/>
<path d="M160.489 234.685L161.471 234.76L162.868 235.028L163.009 235.952L162.886 236.603L162.493 236.888L162.908 237.395L162.874 237.852L161.805 237.566L161.045 237.683L160.062 237.561L159.308 237.876L158.445 237.351L158.587 236.807L160.07 237.041L161.285 237.177L161.866 236.801L161.13 236.068L161.142 235.42L160.126 235.155L160.489 234.685Z" fill="white" stroke="#2A8086" stroke-width="0.561274"/>
<path d="M304.467 182.043L305.002 180.522L304.689 180.006L305.596 180.001L305.719 179.022L306.538 179.636L307.132 179.897L308.484 179.604L308.614 179.122L309.254 179.051L310.038 178.677L310.212 178.832L310.968 178.531L311.346 177.961L311.874 177.813L313.599 178.549L313.943 178.301L314.837 178.958L314.949 179.601L313.965 180.102L313.203 181.71L312.229 183.296L310.938 183.733L309.933 183.631L308.699 184.239L308.097 184.583L306.766 184.14L305.562 183.146L305.05 182.859L304.737 182.069L304.467 182.043Z" fill="white" stroke="#2A8086" stroke-width="0.561274"/>
<path d="M268.388 164.337L268.653 166.267L267.436 168.636L264.581 170.176L262.301 169.784L263.606 167.038L262.766 164.3L264.956 162.144L266.174 160.839L266.506 162.335L266.174 163.812L267.17 163.774L268.388 164.337Z" fill="white" stroke="#2A8086" stroke-width="0.561274"/>
<path d="M255 123.059L254.628 125.632L256.448 128.275L254.354 131.151L249.708 133.667L248.319 134.327L246.199 133.795L241.705 132.641L243.291 131.009L239.785 129.172L242.637 128.435L242.568 127.307L239.188 126.405L240.275 123.835L242.717 123.242L245.227 125.932L247.674 123.778L249.701 124.902L252.328 122.773L255 123.059Z" fill="white" stroke="#2A8086" stroke-width="0.561274"/>
<path d="M303.367 200.869L302.787 202.467L303.028 203.092L302.69 204.123L301.458 203.369L300.639 203.152L298.39 202.126L298.616 201.083L300.501 201.269L302.144 201.047L303.367 200.869ZM293.204 194.655L294.17 196.161L293.944 198.924L293.211 198.793L292.554 199.483L291.944 198.935L291.88 196.417L291.512 195.208L292.398 195.314L293.204 194.655ZM298.304 182.243L300.607 182.846L300.433 183.99L300.818 184.971L299.536 184.636L298.226 185.45L298.315 186.579L298.118 187.223L298.646 188.366L300.156 189.486L300.966 191.306L302.759 193.056L304.021 193.043L304.413 193.519L303.961 193.947L305.403 194.719L306.586 195.363L307.967 196.465L308.134 196.858L307.833 197.608L306.939 196.629L305.54 196.282L304.862 197.639L306.026 198.411L305.835 199.491L305.162 199.613L304.301 201.369L303.631 201.525L303.637 200.903L303.965 199.804L304.315 199.364L303.686 198.163L303.195 197.11L302.526 196.849L302.051 195.94L301.016 195.555L300.319 194.7L299.127 194.562L297.868 193.595L296.395 192.189L295.3 190.932L294.797 188.748L293.996 188.488L292.686 187.749L291.944 188.052L291.014 189.087L290.344 189.25L290.529 188.283L289.656 187.999L289.24 186.253L289.799 185.559L289.325 184.699L289.391 184.048L290.085 184.542L290.861 184.432L291.764 183.649L292.043 184.016L292.81 183.942L293.159 183.006L294.351 183.298L295.06 182.905L295.188 181.946L296.164 182.279L296.351 181.833L297.943 181.424L298.304 182.243Z" fill="white" stroke="#2A8086" stroke-width="0.561274"/>
<path d="M153.433 237.101L154.517 237.252L155.373 237.657L155.64 238.119L154.507 238.15L154.018 238.431L153.116 238.161L152.195 237.547L152.389 237.162L153.066 237.044L153.433 237.101Z" fill="white" stroke="#2A8086" stroke-width="0.561274"/>
<path d="M265.946 260.229L265.524 260.242L263.864 259.477L262.4 258.254L261.028 257.375L259.943 256.336L260.329 255.82L260.414 255.351L261.14 254.474L261.89 253.72L262.234 253.684L262.655 253.502L263.329 254.492L263.222 255.141L263.535 255.484L263.991 255.492L264.319 254.842L264.774 254.884L264.7 255.353L264.861 256.133L264.511 256.848L264.981 257.29L265.492 257.398L266.174 258.072L266.224 258.705L266.07 258.906L265.946 260.229Z" fill="white" stroke="#2A8086" stroke-width="0.561274"/>
<path d="M288.102 174.102L288.424 174.667L288.333 175.755L287.869 175.807L287.508 175.593L287.682 174.197L288.102 174.102Z" fill="white" stroke="#2A8086" stroke-width="0.561274"/>
<path d="M302.289 229.616L301.149 230.261L300.243 229.307L297.696 228.556L296.989 227.459L295.717 226.643L294.965 226.965L294.392 225.982L294.331 225.224L293.379 223.928L294.018 223.181L293.878 222.053L294.083 221.065L293.966 220.238L294.25 218.75L294.162 217.897L293.641 216.266L294.427 215.835L294.566 215.047L294.395 214.271L295.501 213.546L295.997 212.941L296.782 212.397L296.873 210.933L298.765 211.59L299.442 211.427L300.787 211.744L302.924 212.594L303.679 214.27L305.124 214.634L307.394 215.417L309.11 216.341L309.896 215.859L310.667 215.002L310.292 213.564L310.798 212.644L311.958 211.755L313.067 211.494L315.245 211.884L315.795 212.733L316.394 212.741L316.907 213.064L318.508 213.285L318.901 213.908L318.317 214.808L318.566 215.607L318.152 216.753L318.635 218.239V224.661V231.111V234.536L316.783 234.541L316.763 235.255L310.339 231.982L303.915 228.664L302.289 229.616Z" fill="white" stroke="#2A8086" stroke-width="0.561274"/>
<path d="M276.134 211.454L275.578 209.427L275.482 208.248L274.875 206.996L274.175 206.975L272.507 206.541L270.975 206.678L270.004 205.841L268.819 205.831L268.313 207.04L267.236 209.058L266.042 209.857L264.426 210.734L263.39 212.025L263.174 213.023L262.562 214.642L262.965 216.958L261.62 218.495L260.812 218.983L259.543 220.229L258.046 220.43L257.236 221.126L257.227 221.134L264.413 221.126V221.122L264.399 218.967L267 217.611L268.608 217.331L269.927 216.834L270.543 215.905L272.426 215.167L272.495 213.779L273.427 213.615L274.156 212.916L276.263 212.597L276.559 211.859L276.134 211.454Z" fill="white" stroke="#2A8086" stroke-width="0.561274"/>
<path d="M310.265 191.875L310.163 191.464L309.464 192.536L309.572 193.223L309.235 193.056L308.784 192.35L308.088 191.918L308.265 191.548L308.501 190.343L309.025 189.83L309.326 189.627L309.753 190.007L309.988 190.312L310.518 190.549L311.132 191.005L310.999 191.193L310.698 191.682L310.265 191.875Z" fill="white" stroke="#2A8086" stroke-width="0.561274"/>
<path d="M258.766 243.571L259.308 243.269L259.578 242.293L260.089 242.255L261.214 242.717L262.122 242.389L262.745 242.498L262.987 242.13L269.449 242.104L269.807 240.939L269.528 240.734L268.751 233.447L267.974 225.947L270.439 225.915L275.872 229.737L281.305 233.498L281.688 234.298L282.69 234.786L283.437 235.062L283.455 236.142L285.241 235.976L285.246 239.854L284.365 240.969L284.228 241.994L282.797 242.258L280.6 242.4L280.004 242.989L278.972 243.054L277.939 243.062L277.538 242.744L276.651 242.98L275.146 243.667L274.838 244.183L273.588 244.922L273.37 245.346L272.694 245.681L271.916 245.459L271.474 245.861L271.238 246.986L269.959 248.343L269.996 248.896L269.557 249.588L269.664 250.533L268.999 250.774L268.624 250.979L268.374 250.283L267.909 250.467L267.631 250.435L267.335 250.91L266.091 250.897L265.645 250.652L265.435 250.8L264.943 250.331L265.028 249.846L264.827 249.656L264.484 249.816L264.547 249.286L264.877 248.866L264.217 248.182L264.025 247.73L263.667 247.371L263.345 247.328L262.958 247.557L262.437 247.776L261.996 248.13L261.306 247.999L260.859 247.584L260.592 247.529L260.172 247.748L259.916 247.749L259.824 247.15L259.898 246.639L259.76 246.004L259.157 245.542L258.839 244.599L258.766 243.571Z" fill="white" stroke="#2A8086" stroke-width="0.561274"/>
<path d="M121.912 224.327L121.287 225.885L121.005 227.153L120.888 229.495L120.732 230.342L121.011 231.286L121.51 232.125L121.833 233.456L122.901 234.727L123.277 235.697L123.908 236.531L125.618 236.979L126.283 237.685L127.697 237.213L128.924 237.043L130.13 236.739L131.144 236.449L132.169 235.758L132.552 234.767L132.684 233.333L132.963 232.832L134.054 232.382L135.757 231.984L137.183 232.043L138.16 231.897L138.547 232.262L138.492 233.089L137.626 234.106L137.244 235.142L137.54 235.438L137.299 236.172L136.895 237.49L136.487 237.057L136.15 237.085L135.844 237.107L135.267 238.124L134.974 237.926L134.779 238.003L134.792 238.25L133.303 238.232L131.799 238.235L131.798 239.18L131.07 239.184L131.67 239.743L132.265 240.129L132.444 240.491L132.705 240.592L132.664 241.16L130.596 241.165L129.821 242.52L130.05 242.83L129.863 243.218L129.824 243.7L128.001 241.916L127.17 241.376L125.855 240.941L124.956 241.062L123.662 241.688L122.85 241.852L121.713 241.414L120.506 241.097L119 240.332L117.793 240.098L115.969 239.32L114.622 238.518L114.215 238.069L113.314 237.969L111.666 237.436L110.996 236.665L109.265 235.704L108.458 234.632L108.074 233.801L108.611 233.633L108.446 233.146L108.816 232.7L108.824 232.107L108.281 231.333L108.135 230.646L107.595 229.77L106.176 228.038L104.556 226.666L103.773 225.566L102.39 224.842L102.094 224.407L102.34 223.305L101.519 222.887L100.568 222.014L100.167 220.754L99.2998 220.606L98.3652 219.649L97.6104 218.759L97.5397 218.187L96.6741 216.796L96.1031 215.373L96.1278 214.655L94.9628 213.91L94.4251 213.992L93.506 213.473L93.2475 214.237L93.5141 215.136L93.6709 216.534L94.2235 217.296L95.4189 218.564L95.6843 218.994L95.929 219.125L96.1415 219.752L96.4276 219.726L96.751 220.898L97.2405 221.358L97.5834 221.997L98.5955 222.911L99.1298 224.572L99.6083 225.349L100.055 226.178L100.144 227.107L100.921 227.165L101.567 227.961L102.151 228.742L102.112 229.054L101.434 229.693L101.148 229.685L100.724 228.626L99.6698 227.629L98.5082 226.78L97.6845 226.332L97.7379 225.038L97.4932 224.074L96.7258 223.521L95.6188 222.722L95.4063 222.953L94.9996 222.485L94.0064 222.05L93.0568 221.002L93.1746 220.865L93.8381 220.968L94.4355 220.29L94.4958 219.469L93.2556 218.163L92.31 217.654L91.7167 216.5L91.1192 215.281L90.373 213.782L89.7188 212.08L91.5489 211.934L93.5945 211.727L93.444 212.099L95.8762 213.021L99.5503 214.348L102.753 214.335L104.03 214.334L104.034 213.558L106.824 213.558L107.411 214.225L108.235 214.818L109.192 215.639L109.726 216.609L110.127 217.625L110.959 218.181L112.296 218.731L113.311 217.279L114.628 217.243L115.763 217.978L116.571 219.232L117.128 220.3L118.078 221.332L118.433 222.593L118.884 223.435L120.14 223.989L121.284 224.38L121.912 224.327Z" fill="white" stroke="#2A8086" stroke-width="0.561274"/>
<path d="M304.696 314.985L303.499 313.611L302.869 312.293L302.513 310.548L302.116 309.26L301.576 306.547L301.54 304.461L301.334 303.517L300.708 302.805L299.876 301.385L299.03 299.338L298.677 298.272L297.367 296.623L297.27 295.334L298.044 295.016L299.009 294.73L300.053 294.78L301.013 295.538L301.257 295.42L307.785 295.348L308.901 296.152L312.801 296.39L315.761 295.705L317.08 295.324L318.124 295.421L318.76 295.799L318.772 295.938L317.864 296.317L317.375 296.321L316.347 296.981L315.731 296.287L313.249 296.876L312.049 296.932L312.002 303.004L310.414 303.064L310.415 308.154L310.413 314.774L308.975 315.708L308.11 315.842L307.098 315.496L306.375 315.363L306.103 314.583L305.467 314.085L304.696 314.985Z" fill="white" stroke="#2A8086" stroke-width="0.561274"/>
<path d="M281.842 247.973L281.878 246.852L280.021 246.479L279.971 245.684L279.064 244.608L278.848 243.857L278.975 243.055L280.007 242.989L280.603 242.4L282.8 242.258L284.231 241.994L284.369 240.969L285.249 239.854L285.245 235.976L287.516 235.22L292.179 231.859L297.698 228.555L300.246 229.307L301.152 230.261L302.292 229.616L302.687 232.302L303.29 232.749L303.316 233.294L303.986 233.88L303.635 234.614L303.015 238.049L302.93 240.23L300.876 241.801L300.18 243.984L300.851 244.595L300.847 245.655L301.88 245.693L301.719 246.467L301.264 246.561L301.212 247.083L300.913 247.119L299.823 245.321L299.445 245.255L298.186 246.175L296.938 245.695L296.072 245.599L295.607 245.83L294.663 245.78L293.712 246.481L292.891 246.52L290.942 245.671L290.178 246.075L289.356 246.047L288.753 245.426L287.139 244.811L285.407 245.007L284.988 245.363L284.761 246.308L284.3 246.97L284.188 248.431L282.959 247.489L282.382 247.494L281.842 247.973Z" fill="white" stroke="#2A8086" stroke-width="0.561274"/>
<path d="M292.062 259.574L290.391 260.152L289.779 260.068L289.16 260.427L287.872 260.392L287.01 259.388L286.479 258.225L285.339 257.165L284.128 257.185L282.707 257.184L282.8 254.586L282.759 253.557L283.062 252.536L283.558 252.039L284.34 251.033L284.17 250.596L284.487 249.941L284.125 248.974L284.188 248.431L284.3 246.97L284.761 246.309L284.988 245.363L285.407 245.007L287.139 244.812L288.753 245.426L289.357 246.047L290.179 246.076L290.942 245.672L292.891 246.521L293.713 246.481L294.663 245.781L295.607 245.831L296.072 245.6L296.939 245.696L298.186 246.175L299.445 245.256L299.824 245.322L300.913 247.12L301.213 247.084L301.85 247.736L301.675 248.031L301.589 248.575L300.233 249.837L299.807 250.876L299.58 251.72L299.238 252.081L298.913 253.216L298.052 253.882L297.803 254.7L297.441 255.35L297.29 256.021L296.183 256.564L295.279 255.901L294.669 255.928L293.709 256.871L293.243 256.885L292.477 258.437L292.062 259.574Z" fill="white" stroke="#2A8086" stroke-width="0.561274"/>
<path d="M140.319 249.364L139.762 248.85L139.008 248.191L138.654 247.64L137.975 247.125L137.168 246.384L137.347 246.13L137.613 246.377L137.735 246.261L138.236 246.194L138.437 245.818L138.674 245.803L138.639 244.994L139.017 244.956L139.353 244.967L139.701 244.527L140.176 244.86L140.341 244.656L140.638 244.46L141.2 244.005L141.226 243.665L141.381 243.679L141.588 243.284L141.756 243.236L142.031 243.488L142.353 243.564L142.709 243.353L143.116 243.352L143.675 243.136L143.898 242.91L144.451 242.944L144.312 243.103L144.23 243.472L144.394 244.077L144.023 244.64L143.85 245.303L143.798 246.028L143.884 246.451L143.925 247.19L143.679 247.35L143.529 248.05L143.639 248.482L143.31 248.9L143.385 249.34L143.632 249.608L143.246 249.954L142.77 249.845L142.503 249.51L141.993 249.374L141.622 249.586L140.561 249.154L140.319 249.364Z" fill="white" stroke="#2A8086" stroke-width="0.561274"/>
<path d="M286.309 166.247L286.211 166.769L286.489 166.859L286.611 167.094L286.66 167.307L286.884 167.387L286.901 167.5L286.701 167.652L286.48 167.666V167.834L286.633 168.101L286.412 168.36L286.636 168.432L287.09 167.989L287.366 167.583V167.307L287.27 167.116L287.007 166.984L287.067 166.685L287.007 166.422L287.246 165.847L287.482 165.548L288.151 165.306L289.489 165.382L289.79 166.292L289.389 168.719L288.981 169.702L288.013 169.703L288.284 172.397L287.398 171.802L286.379 170.678L284.886 171.213L283.707 171.011L284.11 170.299L284.637 169.605L285.372 168.887L285.807 167.685L285.947 166.432L286.309 166.247Z" fill="white" stroke="#2A8086" stroke-width="0.561274"/>
<path d="M323.739 101.906L328.777 105.49L326.702 106.769L328.467 109.707L325.726 111.539L324.425 111.955L325.108 108.742L323.041 106.874L320.54 108.468L319.75 111.831L318.214 113.807L316.485 112.732L314.382 112.953L312.592 110.567L311.626 111.767L310.627 111.952L310.391 114.872L307.355 114.169L306.929 116.591L305.383 116.577L304.319 119.589L302.708 124.108L300.207 129.565L300.793 130.847L300.233 132.314L298.635 132.252L297.589 135.644L297.688 140.265L298.717 141.976L298.184 145.84L296.844 148.03L296.134 149.837L295.054 147.912L291.874 151.511L289.726 152.226L287.499 150.667L286.924 147.298L286.414 139.683L287.897 137.457L292.15 134.479L295.33 130.696L298.279 125.353L302.149 117.448L304.846 114.189L309.272 108.506L312.807 106.442L315.457 106.695L317.909 102.677L320.846 102.896L323.739 101.906Z" fill="white" stroke="#2A8086" stroke-width="0.561274"/>
<path d="M152.931 255.629L152.394 255.164L152.049 254.292L152.447 253.861L152.039 253.749L151.738 253.215L150.936 252.765L150.232 252.868L149.905 253.431L149.254 253.838L148.903 253.894L148.745 254.231L149.513 255.107L149.073 255.313L148.841 255.552L148.091 255.634L147.813 254.671L147.603 254.945L147.072 254.85L146.747 254.2L146.086 254.093L145.668 253.904L144.977 253.906L144.927 254.257L144.742 254.012L144.827 253.692L144.962 253.364L144.898 253.071L145.14 252.879L144.804 252.638L144.795 251.986L145.418 251.84L145.997 252.422L145.963 252.766L146.606 252.839L146.758 252.707L147.201 253.105L147.994 252.987L148.678 252.578L149.657 252.252L150.206 251.767L151.095 251.862L151.036 252.022L151.934 252.077L152.65 252.357L153.176 252.844L153.782 253.292L153.586 253.529L153.96 254.481L153.656 254.961L153.138 254.845L152.931 255.629Z" fill="white" stroke="#2A8086" stroke-width="0.561274"/>
<path d="M166.285 295.801L165.853 296.664L165.024 297.094L163.41 296.127L163.27 295.438L160.077 293.759L157.188 291.939L155.946 290.918L155.279 289.554L155.543 289.079L154.18 286.924L152.591 283.913L151.07 280.684L150.411 279.947L149.904 278.759L148.653 277.707L147.505 277.055L148.027 276.337L147.246 274.805L147.747 273.681L149.031 272.669L149.222 273.336L148.763 273.718L148.806 274.306L149.472 274.178L150.122 274.351L150.798 275.162L151.709 274.501L152.014 273.419L153.001 272.025L154.937 271.393L156.694 269.717L157.195 268.676L156.97 267.461L157.4 267.309L158.471 268.067L158.985 268.822L159.731 269.235L160.68 270.913L161.879 271.114L162.766 270.69L163.348 270.967L164.315 270.829L165.548 271.58L164.509 273.21L164.99 273.248L165.796 274.101L164.345 274.025L164.129 274.267L162.809 274.576L160.967 275.668L160.85 276.419L160.439 276.978L160.599 277.849L159.626 278.314L159.628 278.995L159.203 279.29L159.873 280.745L160.768 281.73L160.428 282.426L161.497 282.52L162.106 283.387L163.527 283.428L164.849 282.471L164.741 284.942L165.474 285.129L166.382 284.848L167.775 287.479L167.429 288.035L167.349 289.191L167.318 290.594L166.689 291.421L166.977 292.036L166.608 292.594L167.3 293.994L166.285 295.801Z" fill="white" stroke="#2A8086" stroke-width="0.561274"/>
<path d="M302.557 171.625L301.897 169.979L302.022 169.082L301.624 167.675L301.039 166.728L301.488 166.013L301.111 164.638L302.212 163.837L304.726 162.564L306.754 161.623L308.361 162.094L308.483 162.77L310.036 162.805L312.02 163.118L314.982 163.077L315.808 163.371L316.194 164.215L316.265 165.416L316.711 166.437L316.702 167.499L315.736 168.039L316.233 169.255L316.263 170.411L317.073 172.647L316.901 173.356L316.102 173.649L314.639 175.723L315.055 176.828L314.703 176.686L313.172 175.739L312.013 176.089L311.253 175.835L310.301 176.363L309.488 175.488L308.826 175.824L308.735 175.675L307.994 174.451L306.797 174.3L306.644 173.515L305.539 173.232L305.299 173.882L304.424 173.362L304.525 172.667L303.321 172.445L302.557 171.625Z" fill="white" stroke="#2A8086" stroke-width="0.561274"/>
<path d="M171.611 237.06L172.434 237.209L172.725 237.544L172.312 237.969L171.1 237.958L170.158 238.018L170.064 237.297L170.293 237.05L171.611 237.06Z" fill="white" stroke="#2A8086" stroke-width="0.561274"/>
<path d="M263.819 193.217L264.404 192.668L265.061 192.352L265.465 193.41L266.416 193.408L266.692 193.135L267.63 193.211L268.081 194.288L267.336 194.865L267.316 196.517L267.054 196.825L266.989 197.813L266.294 197.985L266.939 199.229L266.494 200.579L267.05 201.186L266.828 201.739L266.232 202.499L266.366 203.165L265.719 203.687L264.87 203.404L264.038 203.626L264.284 202.049L264.133 200.798L263.412 200.609L263.027 199.832L263.155 198.479L263.798 197.724L263.912 196.878L264.248 195.61L264.212 194.709L263.89 193.942L263.819 193.217Z" fill="white" stroke="#2A8086" stroke-width="0.561274"/>
<path d="M177.406 303.755L178.041 301.692L178.081 300.77L178.854 299.271L181.661 298.776L183.156 298.8L184.657 299.67L184.684 300.195L185.161 301.145L185.054 303.48L186.754 303.812L187.411 303.473L188.499 303.941L188.801 304.459L188.951 306.055L189.139 306.728L189.739 306.807L190.344 306.523L190.923 306.841L190.922 307.807L190.704 308.851L190.388 309.875L190.124 311.45L188.664 312.828L187.39 313.118L185.581 312.843L183.957 312.352L185.543 309.634L185.311 308.852L183.652 308.161L181.684 306.862L180.367 306.595L177.406 303.755Z" fill="white" stroke="#2A8086" stroke-width="0.561274"/>
<path d="M311.99 185.37L312.972 185.907L313.098 186.843L314.037 187.498L314.543 186.993L314.94 187.273L314.567 187.653L314.862 188.044L314.464 188.552L314.609 189.364L315.391 190.319L314.777 191.005L314.507 191.7L314.681 191.959L314.416 192.266L313.67 192.302L313.121 192.429L313.068 192.266L313.261 192.007L313.441 191.477L313.212 191.489L312.899 191.084L312.634 190.98L312.424 190.632L312.123 190.495L311.894 190.184L311.605 190.306L311.382 191.036L310.997 191.193L311.129 191.005L310.515 190.55L309.986 190.312L309.751 190.007L309.323 189.628L309.703 189.53L309.937 188.484L309.161 187.622L309.564 186.63L308.98 186.636L309.6 185.781L309.088 185.13L308.697 184.239L309.931 183.631L310.936 183.734L311.81 184.641L311.99 185.37Z" fill="white" stroke="#2A8086" stroke-width="0.561274"/>
<path d="M314.099 125.965L312.537 128.659L312.788 130.966L310.226 133.918L307.116 136.985L305.943 141.817L307.09 144.153L308.63 145.957L307.15 149.533L305.475 150.26L304.861 155.337L303.946 158.07L301.992 157.791L301.081 160.06L299.216 160.19L298.704 157.484L297.356 154.146L296.131 149.837L296.841 148.031L298.181 145.841L298.714 141.977L297.685 140.266L297.586 135.645L298.631 132.253L300.229 132.315L300.79 130.848L300.203 129.566L302.704 124.109L304.315 119.59L305.379 116.578L306.925 116.592L307.351 114.17L310.387 114.873L310.623 111.954L311.622 111.768L313.769 113.952L316.283 116.912L316.326 123.3L316.869 124.851L314.099 125.965Z" fill="white" stroke="#2A8086" stroke-width="0.561274"/>
<path d="M300.61 182.846L301.94 183.027L302.753 182.497L304.161 182.439L304.469 182.043L304.739 182.069L305.052 182.859L303.77 183.477L303.613 184.412L303.054 184.647L303.06 185.288L302.428 185.244L301.88 184.87L301.585 185.257L300.463 185.179L300.821 184.971L300.436 183.99L300.61 182.846Z" fill="white" stroke="#2A8086" stroke-width="0.561274"/>
<path d="M318.194 61.0532L314.596 64.1317L311.754 62.3963L312.866 60.4294L311.893 57.9346L315.231 56.3365L315.87 59.3093L318.194 61.0532ZM307.769 45.7295L313.071 52.2161L309.018 55.4674L308.123 61.2612L306.71 62.6915L305.943 68.726L304.002 69.0006L300.538 64.6096L301.999 61.954L299.584 59.7355L296.446 52.9439L295.193 46.1736L299.584 42.9073L300.467 46.1018L302.76 45.9771L303.372 42.855L305.737 42.5316L307.769 45.7295ZM319.359 39.1476L322.515 42.4788L320.127 47.3713L315.456 48.4087L310.705 46.937L310.419 44.4543L308.108 44.294L306.346 39.9984L311.319 37.2853L313.658 39.6261L315.286 36.7017L319.359 39.1476Z" fill="white" stroke="#2A8086" stroke-width="0.561274"/>
<path d="M308.736 175.675L308.827 175.824L309.489 175.488L310.302 176.363L311.254 175.835L312.014 176.089L313.173 175.739L314.704 176.686L314.257 177.323L313.943 178.302L313.6 178.549L311.875 177.813L311.347 177.961L310.969 178.531L310.213 178.832L310.038 178.678L309.254 179.052L308.614 179.123L308.484 179.605L307.133 179.898L306.539 179.637L305.719 179.023L305.559 178.186L305.688 177.879L305.916 177.343L306.63 177.384L307.18 177.132L307.223 176.904L307.532 176.788L307.637 176.229L308.007 176.123L308.256 175.678L308.736 175.675Z" fill="white" stroke="#2A8086" stroke-width="0.561274"/>
<path d="M259.946 256.336L259.513 256.216L258.353 255.566L257.514 254.702L257.232 254.111L257.035 252.916L257.896 252.203L258.082 251.753L258.357 251.403L258.8 251.366L259.176 251.06L260.464 251.062L260.912 251.642L261.261 252.324L261.209 252.796L261.468 253.219L261.45 253.813L261.893 253.72L261.144 254.474L260.417 255.351L260.332 255.82L259.946 256.336Z" fill="white" stroke="#2A8086" stroke-width="0.561274"/>
<path d="M251.454 245.258L250.79 243.973L249.986 243.385L250.695 243.07L251.475 241.905L251.858 241.051L252.409 240.516L253.21 240.661L253.995 240.297L254.895 240.278L255.665 240.769L256.734 241.21L257.709 242.433L258.771 243.571L258.845 244.599L259.163 245.542L259.766 246.004L259.903 246.639L259.829 247.15L259.597 247.243L258.718 247.113L258.598 247.295L258.243 247.332L257.085 246.932L256.307 246.915L253.331 246.847L252.899 247.031L252.366 246.978L251.513 247.245L251.248 245.987L252.714 246.022L253.102 245.792L253.39 245.778L253.987 245.399L254.678 245.746L255.377 245.775L256.075 245.406L255.749 244.93L255.218 245.207L254.719 245.2L254.083 244.794L253.572 244.821L253.208 245.211L251.454 245.258Z" fill="white" stroke="#2A8086" stroke-width="0.561274"/>
<path d="M186.324 257.644L188.254 257.966L188.427 257.676L189.729 257.56L191.461 257.992L190.623 259.374L190.75 260.472L191.383 261.422L191.101 262.112L190.959 262.844L190.549 263.518L189.626 263.179L188.865 263.343L188.215 263.2L188.054 263.664L188.324 263.982L188.18 264.309L187.304 264.178L186.32 262.786L186.109 261.882L185.593 261.88L184.879 260.716L185.176 259.888L185.089 259.509L186.067 259.09L186.324 257.644Z" fill="white" stroke="#2A8086" stroke-width="0.561274"/>
<path d="M136.968 245.604L136.79 245.991L135.857 245.967L135.277 245.809L134.611 245.482L133.716 245.38L133.26 245.026L133.31 244.785L133.862 244.368L134.164 244.186L134.078 243.992L134.455 243.89L134.93 244.029L135.277 244.358L135.764 244.623L135.823 244.845L136.53 244.649L136.861 244.766L137.08 244.945L136.968 245.604Z" fill="white" stroke="#2A8086" stroke-width="0.561274"/>
<path d="M301.719 246.467L301.879 245.693L300.847 245.656L300.851 244.596L300.18 243.985L300.875 241.802L302.93 240.23L303.015 238.049L303.635 234.614L303.985 233.88L303.316 233.294L303.289 232.749L302.687 232.303L302.291 229.616L303.918 228.664L310.341 231.982L316.765 235.255L316.845 241.924L315.456 241.807L314.72 243.029L314.294 244.051L314.63 244.437L314.101 244.943L314.283 245.625L313.866 246.309L313.704 246.912L314.269 246.818L314.607 247.45L314.625 248.4L315.217 248.881L315.197 249.276L314.178 249.555L313.36 250.214L312.196 251.987L310.68 252.738L309.125 252.637L308.67 252.787L308.83 253.356L307.99 253.922L307.306 254.552L305.278 255.171L304.876 254.805L304.609 254.774L304.313 255.188L302.981 255.31L303.233 254.873L302.725 253.759L302.499 253.089L301.797 252.814L300.846 251.868L301.196 251.102L301.931 251.265L302.385 251.149L303.285 251.165L302.408 249.686L302.467 248.602L302.359 247.517L301.719 246.467Z" fill="white" stroke="#2A8086" stroke-width="0.561274"/>
<path d="M281.374 257.372L280.077 257.715L279.718 257.149L279.288 256.128L279.16 255.326L279.517 253.871L279.112 253.281L278.959 252.004L278.962 250.825L278.289 249.986L278.408 249.478L279.818 249.512L279.613 250.37L280.105 250.85L280.665 251.419L280.726 252.216L281.05 252.55L280.977 256.261L281.374 257.372Z" fill="white" stroke="#2A8086" stroke-width="0.561274"/>
<path d="M293.641 216.265L292.954 212.9L291.961 212.135L291.947 211.675L290.63 210.535L290.488 209.083L291.481 207.999L291.86 206.384L291.604 204.495L291.932 203.469L293.686 202.657L294.813 202.899L294.766 203.915L296.132 203.176L296.247 203.562L295.442 204.542L295.431 205.46L295.989 205.952L295.777 207.652L294.716 208.631L295.022 209.685L295.855 209.718L296.26 210.633L296.873 210.932L296.782 212.396L295.997 212.94L295.501 213.545L294.395 214.27L294.566 215.046L294.427 215.834L293.641 216.265Z" fill="white" stroke="#2A8086" stroke-width="0.561274"/>
<path d="M179.025 249.9L179.951 249.688L180.289 249.745L180.225 250.958L178.88 251.136L178.59 250.99L179.057 250.543L179.025 249.9Z" fill="white" stroke="#2A8086" stroke-width="0.561274"/>
<path d="M68.124 161.759L67.2382 160.706L65.8188 159.805L65.3633 157.302L63.2867 154.929L62.4187 152.093L60.8723 151.896L58.3115 151.821L56.4239 150.939L53.0938 147.698L51.5515 147.095L48.7338 145.95L46.5039 146.224L43.3364 144.736L41.4218 143.338L39.6342 144.035L39.9662 146.291L39.0758 146.497L37.2123 147.163L35.7946 148.234L34.0098 148.902L33.7795 147.038L34.5039 143.86L36.2151 142.843L35.7734 142.007L33.7203 143.855L32.6208 146.021L30.3001 148.289L31.4789 149.809L29.9566 152.02L28.2252 153.288L26.6134 154.203L26.2147 155.516L23.7004 157.029L23.1914 158.387L21.3067 159.609L20.2015 159.39L18.6982 160.181L17.0639 161.14L15.7243 162.074L12.9601 162.865L12.7079 162.4L14.4697 161.097L16.0454 160.228L17.7624 158.671L19.7603 158.347L20.5548 157.162L22.787 155.408L23.1466 154.815L24.3357 153.762L24.6138 151.464L25.4329 149.641L23.5757 150.581L23.0564 150.048L22.1844 151.171L21.1327 149.603L20.6984 150.715L20.0964 149.167L18.4862 150.411L17.4976 150.409L17.3586 148.552L17.6498 147.392L16.6124 146.254L14.518 146.868L13.1589 145.357L12.0571 144.576L12.0502 142.709L10.8088 141.283L11.4321 139.327L12.7453 137.392L13.3197 135.58L14.6231 135.32L15.7283 135.89L17.0277 134.162L18.1973 134.473L19.4248 133.35L19.1256 131.674L18.2237 131.006L19.4162 129.559L18.427 129.602L16.7181 130.421L16.2275 131.245L14.9574 130.423L12.6792 130.841L10.3206 129.944L9.64446 128.419L7.60635 126.175L9.86964 124.528L13.4622 122.571H14.7863L14.5668 124.573L17.9663 124.418L16.6589 121.926L14.6777 120.362L13.5323 118.272L11.987 116.453L9.77371 115.083L10.675 112.769L13.5323 112.624L15.5652 110.564L15.9483 108.314L17.5935 106.068L19.1623 105.519L22.2155 103.36L23.6964 103.689L26.1751 101.041L28.6118 102.093L29.7774 104.316L30.4931 103.369L33.2148 103.664L33.1183 104.784L35.5827 105.605L37.2255 105.123L40.6188 106.637L43.7167 107.083L44.9569 107.696L47.1001 106.929L49.5432 108.343L51.293 108.995L51.2821 124.878L51.2734 145.23L52.8595 145.326L54.4283 146.22L55.553 147.619L56.9839 149.685L58.551 147.93L60.168 146.9L61.0228 148.54L62.1079 149.821L63.5825 151.213L64.5895 153.393L66.2364 156.771L68.9748 158.611L69.0196 160.406L68.124 161.759ZM169.185 181.54L168.47 180.858L167.39 181.26L166.854 180.638L165.626 182.417L165.135 184.226L164.563 185.271L163.879 185.625L163.364 185.74L163.202 186.302L160.234 186.303L157.787 186.319L157.06 186.736L155.412 188.304L155.577 188.617L155.672 189.482L154.464 190.211L153.144 190.029L151.878 189.946L151.115 190.199L151.258 190.859V190.86L151.29 191.075L149.902 192.376L148.687 193.001L147.858 193.292L146.904 193.887L145.738 194.171L144.935 194.062L143.942 193.618L144.494 192.786L144.848 192.027L145.605 190.826L145.525 189.924L145.235 188.636L144.639 188.413L143.641 189.393L143.321 189.374L143.238 188.815L144.124 187.921L144.271 186.895L144.14 185.865L142.948 184.973L141.579 184.513L141.354 185.385L140.999 185.618L140.714 186.74L140.565 185.979L139.921 186.523L139.519 187.282L139.099 188.382L139.018 189.327L139.553 190.692L139.508 192.133L138.855 193.187L138.528 193.485L138.094 193.722L137.546 193.734L137.398 193.588L136.964 192.454L136.952 191.89L136.995 191.352L136.792 190.277L137.099 189.025L137.462 187.466L138.298 185.723L138.056 185.731L136.872 187.191L136.654 186.925L137.285 186.108L138.246 184.63L139.341 184.423L140.597 183.961L141.864 184.204L141.918 184.215L143.337 184.006L142.536 183.082L142.104 183.01L141.613 182.916L141.274 182.261L139.692 182.466L138.262 182.985L137.128 182.095L136.215 181.795L136.733 180.549L135.311 181.333L134.018 182.096L132.775 182.691L131.787 181.887L130.174 182.375L130.179 182.031L131.272 181.038L132.416 180.087L134.059 179.298L132.077 178.672L130.773 178.985L129.21 178.237L127.566 177.851L126.441 177.701L125.94 177.289L125.654 175.942L125.109 175.954L125.104 176.898L121.771 176.896L116.26 176.898H110.787H105.952H101.12H96.3686H91.4594H89.8763H85.0947H80.5204L81.0684 178.889L81.3258 180.848L80.9277 181.472L80.0695 179.226L77.7401 178.407L77.5454 178.878L78.0147 179.991L78.5237 182.016L78.8143 185.128L78.6184 187.19L78.4226 189.221L77.793 191.297L78.3071 192.962L78.3634 194.801L78.0101 196.556L78.8683 197.7L79.0906 199.392L80.3372 201.11L81.0477 201.782L80.9903 202.251L82.3316 205.038L83.8941 207.021L84.09 208.092L84.5007 208.407L85.9971 208.598L86.5733 209.122L87.4769 209.219L87.6532 209.774L88.4046 210.004L89.4483 211.107L89.7195 212.081L91.5496 211.935L93.5952 211.729L93.4441 212.101L95.8763 213.022L99.5504 214.349L102.753 214.336L104.03 214.335L104.034 213.559L106.824 213.56L107.411 214.227L108.235 214.82L109.192 215.641L109.726 216.611L110.127 217.628L110.959 218.183L112.297 218.733L113.311 217.281L114.628 217.245L115.763 217.98L116.571 219.234L117.128 220.302L118.078 221.334L118.432 222.595L118.883 223.437L120.139 223.991L121.283 224.382L121.911 224.329L121.605 223.723L121.524 222.864L121.54 221.623L121.911 220.809L122.79 219.943L124.391 219.156L125.857 217.796L127.212 217.366L128.214 217.236L129.386 217.663L130.791 217.433L131.993 218.405L133.162 218.463L133.766 218.115L134.364 218.386L134.671 218.145L134.329 217.781L134.355 217.034L134.065 216.542L134.731 216.252L135.959 216.124L137.388 216.329L139.208 216.096L140.218 216.555L141 217.418L141.289 217.51L142.914 216.671L143.542 216.955L144.798 218.496L145.249 219.501L144.918 220.708L145.16 221.416L145.909 222.793L146.762 224.33L147.374 224.739L147.628 225.516L148.421 225.731L148.902 225.508L149.304 224.424L149.374 223.73L149.424 222.523L148.661 220.429L148.652 219.642L147.937 218.348L147.399 216.771L147.114 215.481L147.363 214.151L148.121 213.034L149.03 212.131L150.798 210.893L151.028 210.249L151.843 209.541L152.647 209.418L153.706 208.28L155.373 207.702L156.396 206.247L156.17 204.262L156.003 203.57L155.54 203.431L155.471 201.509L154.363 200.853L155.427 201.173L155.084 199.875L155.394 198.983L155.583 200.691L156.405 201.47L155.907 202.848L156.054 202.928L156.96 201.311L157.477 200.517L157.453 199.742L157.053 199.375L156.718 198.26L157.246 198.778L157.6 198.886L157.72 199.417L158.892 197.821L159.239 196.315L158.765 196.218L159.256 195.632L159.208 195.892L160.234 195.888L162.489 195.253L162.011 194.849L159.646 195.25L160.988 194.633L161.925 194.528L162.625 194.421L163.817 194.047L164.591 194.089L165.678 193.742L165.807 193.127L165.324 192.648L165.493 193.436L164.824 193.382L164.292 192.236L164.309 191.079L164.581 190.586L165.434 189.274L167.135 188.616L168.79 187.844L170.51 186.753L170.232 186.009L169.179 184.716L169.185 181.54ZM31.5742 152.56L30.7143 153.021L29.2512 154.088L29.5005 155.479L30.3242 156.238L31.9327 155.115L33.3263 153.699L32.6438 152.764L31.5742 152.56ZM5.36719 136.154L6.54019 135.431L6.67289 135.042L5.36719 134.65V136.154ZM10.2511 144.978L8.66044 145.534L9.63814 146.409L10.694 147.008L11.6826 146.51L11.5286 145.272L10.2511 144.978ZM66.1686 163.648L64.6228 163.866L63.8657 163.51L63.7698 164.382L64.0679 165.574L64.8807 166.41L65.4759 167.635L66.4461 168.84L67.0883 168.845L65.6867 166.719L66.1686 163.648ZM26.6967 232.974L26.1239 232.811L25.9666 232.958L25.9809 233.064L26.1659 233.204L26.4433 233.564L26.9833 233.442L27.1177 233.237L26.6967 232.974ZM24.9762 232.664L25.839 232.714L25.889 232.528L25.0963 232.455L24.9762 232.664ZM28.3597 234.553L28.0736 234.406L27.4566 234.118L27.3343 234.086L27.2407 234.245L27.3515 234.58L27.0718 234.858L26.9914 235.047L27.2579 235.666L27.2119 236.14L27.6117 236.382L27.8473 236.099L28.3625 235.834L28.9921 235.472L29.0306 235.378L28.6205 234.782L28.3597 234.553ZM23.8492 231.599L23.4183 231.837L23.481 231.906L23.6855 232.296L24.2461 232.356L24.3616 232.379L24.4489 232.279L23.9836 231.71L23.8492 231.599ZM21.3188 230.702L21.0729 230.872L20.9896 230.998L21.5319 231.312L21.7232 231.142L21.6899 230.739L21.3188 230.702Z" fill="white" stroke="#2A8086" stroke-width="0.561274"/>
<path d="M185.559 318.001L186.604 317.803L188.22 319.241L188.818 319.187L190.476 320.387L191.739 321.429L192.671 322.721L191.961 323.627L192.407 324.716L191.71 325.933L189.891 327.016L188.702 326.625L187.83 326.834L186.341 325.997L185.249 326.06L184.268 324.988L184.392 323.744L184.742 323.318L184.726 321.424L185.157 319.491L185.559 318.001Z" fill="white" stroke="#2A8086" stroke-width="0.561274"/>
<path d="M163.481 248.242L163.435 248.628L162.49 248.818L163.015 249.559L162.995 250.41L162.285 251.355L162.895 252.642L163.589 252.536L163.95 251.364L163.451 250.792L163.37 249.559L165.376 248.896L165.152 248.126L165.717 247.61L166.295 248.759L167.425 248.785L168.471 249.695L168.534 250.234L169.98 250.249L171.701 250.081L172.624 250.81L173.855 251.011L174.759 250.503L174.777 250.093L176.772 249.995L178.703 249.972L177.335 250.453L177.885 251.221L179.173 251.343L180.394 252.14L180.651 253.438L181.49 253.402L182.122 253.783L180.845 254.732L180.704 255.321L181.256 255.92L180.856 256.222L179.865 256.48L179.897 257.224L179.46 257.667L180.551 258.887L180.764 259.34L180.175 259.952L178.373 260.553L177.215 260.802L176.75 261.181L175.47 260.78L174.277 260.575L173.975 260.723L174.696 261.138L174.631 262.213L174.854 263.222L176.219 263.359L176.306 263.696L175.155 264.151L174.969 264.829L174.305 265.092L173.108 265.465L172.796 265.955L171.543 266.059L170.657 265.212L170.166 263.616L169.737 263.056L169.153 262.703L169.969 261.906L169.914 261.547L169.456 261.071L169.132 260.005L169.258 258.853L169.618 258.313L169.908 257.447L169.338 257.171L168.42 257.354L167.26 257.268L166.609 257.44L165.476 256.054L164.54 255.849L162.468 256.004L162.085 255.442L161.688 255.307L161.632 254.97L161.823 254.372L161.696 253.721L161.34 253.366L161.134 252.621L160.303 252.513L160.749 251.564L160.946 250.404L161.414 249.799L162.038 249.331L162.447 248.516L163.481 248.242Z" fill="white" stroke="#2A8086" stroke-width="0.561274"/>
<path d="M329.139 316.231L328.824 316.497L328.142 317.433L327.692 318.386L326.779 319.723L324.959 321.665L323.822 322.805L322.606 323.675L320.922 324.42L320.101 324.52L319.893 325.056L318.914 324.77L318.117 325.138L316.371 324.766L315.395 325.001L314.728 324.9L313.067 325.664L311.692 325.971L310.697 326.708L309.965 326.755L309.283 326.06L308.739 326.025L308.045 325.159L307.968 325.427L307.754 324.908L307.763 323.779L307.24 322.499L307.76 322.153L307.718 320.701L306.663 318.947L305.854 317.375L305.852 317.37L304.695 314.984L305.467 314.084L306.103 314.582L306.374 315.362L307.097 315.495L308.11 315.842L308.975 315.708L310.412 314.774L310.414 308.154L310.849 308.419L311.803 310.104L311.655 311.191L312.014 311.821L313.168 311.637L313.973 310.838L314.736 310.301L315.131 309.45L315.916 309.039L316.595 309.254L317.365 309.751L318.675 309.839L319.705 309.425L319.869 308.873L320.152 308.028L321.028 307.886L321.513 307.226L322.049 306.058L323.495 304.757L325.774 303.481L326.429 303.5L327.209 303.793L327.752 303.586L328.607 303.758L329.379 306.206L329.798 307.451L329.511 309.421L329.648 310.059L328.835 309.733L328.369 309.86L328.217 310.378L327.777 311.049L327.792 311.668L328.753 312.643L329.695 312.449L330.023 311.65L331.245 311.665L330.842 312.975L330.652 314.481L330.235 315.305L329.139 316.231ZM325.044 315.678L324.341 315.115L323.587 315.488L322.715 316.205L321.856 317.371L323.064 318.798L323.64 318.613L323.937 318.02L324.835 317.73L325.109 317.127L325.603 316.232L325.044 315.678Z" fill="white" stroke="#2A8086" stroke-width="0.561274"/>
<path d="M193.719 263.209L193.102 263.817L192.331 263.932L192.111 263.481L191.751 263.414L191.253 263.848L190.549 263.518L190.957 262.834L191.097 262.104L191.375 261.418L190.75 260.472L190.623 259.374L191.461 257.992L192.008 258.169L193.194 258.549L194.899 259.905L195.166 260.562L194.213 262.029L193.719 263.209Z" fill="white" stroke="#2A8086" stroke-width="0.561274"/>
<path d="M156.973 267.461L156.284 267.082L155.493 266.552L155.035 266.806L153.669 266.585L153.276 265.896L152.976 265.922L151.365 265.008L151.146 264.511L151.747 264.391L151.676 263.589L152.054 263.009L152.853 262.902L153.531 261.895L154.147 261.054L153.554 260.672L153.858 259.741L153.494 258.272L153.839 257.85L153.586 256.488L152.934 255.629L153.14 254.845L153.659 254.961L153.962 254.481L153.588 253.529L153.784 253.292L154.616 253.343L155.825 252.213L156.488 252.04L156.504 251.503L156.801 250.129L157.724 249.373L158.739 249.342L158.868 249.002L160.128 249.138L161.395 248.314L162.023 247.948L162.802 247.159L163.373 247.26L163.796 247.691L163.483 248.242L162.449 248.516L162.04 249.331L161.416 249.799L160.948 250.404L160.751 251.564L160.305 252.513L161.136 252.621L161.342 253.366L161.698 253.721L161.825 254.372L161.634 254.97L161.69 255.307L162.087 255.442L162.47 256.004L164.542 255.849L165.478 256.054L166.611 257.44L167.262 257.268L168.422 257.354L169.34 257.171L169.91 257.447L169.62 258.313L169.26 258.853L169.134 260.004L169.458 261.07L169.916 261.547L169.971 261.906L169.155 262.703L169.739 263.056L170.168 263.616L170.659 265.212L170.355 265.409L170.041 264.465L169.593 263.958L169.06 264.51L165.923 264.473L165.942 265.475L166.886 265.641L166.832 266.254L166.51 266.088L165.602 266.351L165.594 267.514L166.309 268.098L166.561 269.014L166.523 269.708L165.799 274.1L164.993 273.248L164.512 273.21L165.551 271.579L164.318 270.829L163.351 270.967L162.769 270.69L161.882 271.113L160.683 270.912L159.734 269.234L158.988 268.822L158.474 268.067L157.403 267.309L156.973 267.461Z" fill="white" stroke="#2A8086" stroke-width="0.561274"/>
<path d="M258.769 243.572L257.706 242.434L256.731 241.211L255.662 240.769L254.893 240.278L253.993 240.297L253.207 240.661L252.407 240.517L251.855 241.051L251.716 240.152L252.166 239.327L252.366 237.746L252.187 236.076L251.993 235.233L252.154 234.384L251.738 233.572L250.889 232.832L251.24 232.26L257.547 232.271L257.242 229.775L257.636 228.881L259.145 228.725L259.093 224.215L264.379 224.308L264.384 221.593L270.442 225.916L267.977 225.948L268.754 233.448L269.532 240.734L269.811 240.94L269.452 242.105L262.99 242.13L262.748 242.499L262.125 242.389L261.217 242.717L260.092 242.255L259.582 242.293L259.311 243.27L258.769 243.572Z" fill="white" stroke="#2A8086" stroke-width="0.561274"/>
<path d="M203.054 14.7644L208.461 6.94912L214.113 7.56147L216.167 2.41909L221.86 1.03125L234.724 2.83901L244.799 13.5167L241.825 18.2903L235.663 18.8205L226.994 19.9866L227.805 22.0804L233.506 20.7919L238.358 24.763L241.485 21.2452L242.824 25.3524L241.056 31.6523L245.156 27.6743L252.977 23.3373L257.805 25.5276L258.71 30.1869L252.144 37.4639L251.234 39.7002L246.086 41.3465L249.816 41.798L247.932 48.4086L246.636 53.9221L246.686 62.6863L248.62 67.4737L246.104 67.7684L243.456 69.9972L246.428 73.6161L246.806 79.1457L245.084 79.7293L247.171 84.9877L243.593 85.414L245.461 87.7921L244.933 89.8078L242.662 90.6798L240.417 90.6959L242.435 94.4189L242.457 96.7901L239.27 94.5883L238.441 96.0181L240.615 97.3353L242.726 100.481L243.336 104.476L240.465 105.408L239.224 103.534L237.232 100.673L237.783 104.045L235.912 106.579L240.157 106.78L242.377 107.039L238.061 111.077L233.683 114.596L228.969 116.099L227.193 116.118L225.527 117.767L223.286 122.153L219.822 124.962L218.709 125.124L216.565 126.089L214.25 126.998L212.87 129.366L212.848 131.984L212.033 134.377L209.407 137.22L210.056 139.923L209.332 142.709L208.506 145.906L206.237 146.102L203.86 143.44L200.639 143.424L199.076 141.597L198.002 138.262L195.211 133.856L194.395 131.468L194.175 128.084L191.943 124.484L192.524 121.514L191.449 120.062L193.041 115.089L195.465 113.453L196.101 111.58L196.438 107.983L194.599 109.63L193.721 110.314L192.275 110.964L190.298 109.468L190.191 106.279L190.821 103.707L192.315 103.636L195.603 104.932L192.833 101.81L191.392 100.084L189.788 100.797L188.444 99.5371L190.242 94.6509L189.263 92.6272L187.984 88.7538L186.046 82.4889L183.995 80.0883L184.014 77.4304L179.692 73.5874L176.272 73.098L171.968 73.3691L168.038 73.8614L166.168 71.7096L163.37 67.3094L167.599 65.0294L170.841 64.6411L163.949 62.7058L160.318 59.5849L160.54 56.5157L166.638 52.5704L172.537 48.458L173.16 45.2199L168.813 41.91L170.217 38.0934L175.793 31.0089L178.136 29.8721L177.465 24.9491L181.28 21.9397L186.233 20.0957L191.182 19.9906L192.94 23.613L197.212 17.1081L201.056 21.5772L203.318 22.4923L206.663 26.1756L202.833 19.9889L203.054 14.7644Z" fill="white" stroke="#2A8086" stroke-width="0.561274"/>
<path d="M251.246 245.988L251.452 245.258L253.206 245.211L253.57 244.821L254.08 244.795L254.716 245.2L255.216 245.208L255.747 244.93L256.073 245.406L255.375 245.776L254.675 245.746L253.984 245.399L253.388 245.779L253.099 245.792L252.712 246.023L251.246 245.988Z" fill="white" stroke="#2A8086" stroke-width="0.561274"/>
<path d="M119.637 56.3111L119.51 52.9208L121.595 53.2534L122.534 53.802L124.459 56.6311L124.022 59.486L121.639 61.0778L120.327 59.2838L119.637 56.3111ZM127.229 63.5737L127.42 62.7178L126.29 61.3116L123.047 61.2002L123.476 63.3118L126.494 63.7868L127.229 63.5737ZM148.108 90.5471L149.88 93.4784L150.347 93.8082L152.11 93.0757L153.845 93.1912L155.557 93.3498L155.415 91.8315L152.637 88.7405L148.951 88.1218L148.176 88.5044L148.108 90.5471ZM110.526 54.5298L108.97 56.9355L112.556 57.2319L115.207 59.7813L117.837 60.6418L117.21 57.379L115.978 53.5153L111.622 50.4403L108.461 49.2662L108.578 52.533L110.526 54.5298ZM125.402 48.6492L128.347 48.5826L127.074 50.8815L127.049 53.9243L128.78 57.2308L132.118 58.2452L134.967 57.6765L137.944 51.5134L140.155 48.9589L138.214 46.1039L136.941 39.9873L134.299 38.156L131.589 36.0409L129.532 30.5487L125.786 31.0869L126.49 33.4703L124.839 34.186L123.723 37.2432L122.606 41.5274L123.626 45.6984L125.402 48.6492ZM88.7814 79.311L91.0332 80.4329L98.3096 79.6873L94.9641 82.428L95.1692 84.3989L97.6186 84.2633L101.682 81.6324L107.136 80.6713L108.116 77.6739L107.833 74.4748L106.146 74.1865L104.711 75.2946L104.08 72.9204L103.537 69.6467L101.874 68.8339L100.398 71.3677L102.702 77.7147L99.8882 77.2258L97.0269 73.3265L92.494 71.0299L90.9781 72.9377L88.7814 79.311ZM101.742 55.1467L99.6481 53.4826L98.7841 53.104L97.132 55.5649L97.1062 56.7149L99.7808 56.723L101.742 55.1467ZM100.899 62.2456L101.435 59.9565L99.1632 58.7358L96.8115 59.5314L95.5069 61.9791L97.896 64.3958L100.899 62.2456ZM117.615 81.3394L120.27 80.7041L121.004 75.9638L120.954 72.5488L119.722 69.3549L119.598 70.2717L117.333 69.8702L114.907 72.2179L113.174 72.0053L113.277 77.1316L115.917 76.633L115.883 80.3468L117.615 81.3394ZM115.727 107.536L112.821 105.28L110.115 102.862L109.616 99.3124L108.605 94.1856L106.801 91.9803L105.2 91.0916L103.783 91.9056L104.927 97.4122L104.118 99.5554L102.8 94.3975L101.328 92.6139L99.5085 95.3792L97.2687 92.6449L93.6848 94.2924L94.4884 91.7287L92.8427 90.6516L88.5304 94.0052L87.4091 96.1369L86.0568 100.026L88.8693 101.357L91.3537 101.287L87.6182 103.275L88.4678 105.073L90.7517 105.17L94.1932 104.786L97.3078 105.911L95.2053 106.741L92.9346 106.527L90.4484 107.337L89.3771 107.839L91.3618 111.489L92.7916 110.982L94.9905 112.214L95.8631 114.311L98.7284 113.895L102.81 113.23L105.834 111.71L107.706 111.435L110.477 112.65L113.391 113.35L113.934 111.708L112.907 109.956L115.551 109.586L115.727 107.536ZM120.176 106.972L119.05 109.005L117.633 110.433L119.832 112.467L121.144 111.976L123.315 113.331L124.316 111.762L123.334 110.021L122.851 109.145L121.885 108.307L120.176 106.972ZM110.059 90.0588L108.834 88.8094L106.676 89.0374L106.129 89.8325L108.641 93.7111L110.059 90.0588ZM126.538 97.6253L128.265 93.6462L130.186 92.5846L132.592 87.5623L129.515 86.1434L126.16 85.9384L124.561 87.5295L123.72 89.96L123.695 92.7271L124.7 97.4306L126.538 97.6253ZM136.392 84.4103L139.698 84.3041L144.319 83.3769L146.38 84.1093L148.782 82.8111L149.787 81.1797L149.427 78.5838L147.702 76.1545L145.085 75.6944L141.806 76.251L139.245 77.6532L136.895 77.1138L134.723 76.8295L133.7 75.2773L131.852 73.7758L132.219 71.2293L130.829 68.9419L127.658 68.9574L125.869 66.6665L122.55 66.2075L121.944 69.1349L123.811 71.2861L127.142 72.1214L128.759 75.0481L128.955 78.2661L129.513 81.707L133.793 83.6699L136.392 84.4103ZM85.2561 73.9159L88.25 71.0133L89.7551 70.6761L90.9959 68.2474L91.217 62.6357L89.0077 63.7351L86.5376 63.6317L83.23 68.3358L80.4963 73.4926L82.6786 74.9344L85.2561 73.9159ZM126.718 83.2063L127.594 80.8281L127.006 78.8417L125.6 76.5911L123.284 78.3247L122.427 81.1533L124.379 82.7542L126.718 83.2063ZM121.945 89.7762L121.527 88.1212L118.653 88.8473L116.732 87.637L114.826 90.3966L116.601 94.0052L113.312 93.3308L113.28 95.0604L117.283 99.1079L118.397 101.05L119.949 101.469L122.59 99.5089L122.879 94.7922L120.442 92.4519L121.945 89.7762ZM79.4405 178.089L78.7758 176.743L77.168 175.727L76.3718 174.547L75.8238 173.683L74.3101 173.416L73.3215 173.033L71.631 172.48L71.4919 173.067L72.1123 174.434L73.7702 174.883L74.0603 175.59L75.5015 176.453L75.9846 177.322L78.6293 178.425L79.4405 178.089ZM149.353 133.496L148.203 132.285L147.018 132.571L146.875 130.812L145.03 129.643L143.266 128.341L142.33 127.334L141.506 127.928L141.206 126.225L140.043 125.907L139.493 129.43L139.288 132.364L137.887 134.165L140.07 133.818L140.623 135.915L142.915 134.063L144.512 132.121L145.417 133.766L147.923 134.634L149.353 133.496ZM80.1137 103.313L84.3531 100.912V98.6869L86.3504 95.0064L90.2996 91.164L92.3245 89.7469L90.5955 87.3348L89.0313 85.6385L84.9172 85.3099L82.6171 84.0714L77.1731 85.0049L78.7483 88.5808L77.3512 92.275L76.2357 96.2191L75.5446 98.4353L79.2635 101.132L80.1137 103.313ZM157.225 118.997L157.406 118.417L157.388 116.593L156.131 115.396L154.655 115.998L153.97 118.391L154.373 120.436L156.178 120.228L157.225 118.997ZM170.907 123.331L173.439 127.123L175.421 128.763L178.248 124.242L178.749 121.409L176.216 121.136L173.901 117.29L171.344 116.348L167.551 113.494L170.508 111.407L168.984 107.074L167.582 105.148L163.693 103.222L162.015 100.034L159.024 101.178L158.815 98.9591L156.597 96.4764L153.023 93.7685L151.5 95.902L148.313 97.4311L148.553 93.9477L145.79 88.1735L141.708 90.5074L140.219 94.9312L138.951 91.5288L140.136 87.869L135.977 89.3919L134.321 91.6845L133.083 96.5218L133.593 101.721L135.881 101.743L134.197 103.997L135.537 105.698L138.149 106.419L141.556 107.807L147.417 108.852L150.337 108.252L151.199 106.862L152.469 108.463L153.889 108.729L155.594 111.581L154.562 112.718L157.825 114.227L160.292 116.339L160.913 117.804L161.356 119.665L159.272 123.643L158.71 125.621L159.248 127.012L155.933 127.506L152.906 127.574L151.845 130.371L153.208 131.65L157.865 131.058L157.839 129.972L160.184 131.781L162.587 133.663L162.025 134.681L163.977 136.417L167.433 138.447L171.801 139.821L171.539 138.621L169.862 136.511L167.585 133.425L171.625 136.295L173.656 137.249L174.211 134.7L173.163 131.082L172.499 130.089L170.313 128.345L168.619 126.098L168.823 123.834L170.907 123.331ZM133.091 30.5217L134.433 34.7111L137.281 38.0888L142.916 37.4638L146.543 38.5943L144.03 42.0714L142.758 41.0511L138.355 40.6421L139.039 45.418L141.314 48.8853L140.857 51.873L138.001 53.8617L136.696 57.0045L139.309 58.5244L141.505 63.4353L137.199 60.1593L136.216 60.6998L137.01 66.0863L134.032 67.7137L134.234 71.0747L137.279 71.4343L139.676 72.2604L144.407 71.2006L148.616 73.0784L152.92 68.9476L152.885 67.2134L150.133 67.4903L149.907 65.8583L152.157 63.6587L152.921 60.6998L155.41 58.5003L156.94 55.7648L155.608 51.6846L156.721 50.1629L154.501 49.0789L159.378 48.1437L160.404 46.336L163.727 44.8401L166.481 37.1007L169.106 34.2613L172.906 27.8712L169.4 27.9275L170.856 25.4557L174.753 23.162L178.683 18.0478L178.753 14.7557L175.806 11.2849L172.347 9.60179L168.042 8.55689L164.554 7.70155L161.066 6.83817L156.416 9.12271L155.56 7.6711L150.637 8.23176L147.749 9.70864L145.623 11.8053L144.397 18.5515L142.658 15.1147L140.661 14.4587L138.293 19.0369L135.133 20.9602L133.252 21.3416L130.857 23.5457L131.21 27.3634L133.091 30.5217ZM175.83 182.751L175.266 181.612L174.658 182.337L175.06 183.118L177.103 184.102L177.7 183.952L178.492 183.001L176.998 183.064L175.83 182.751ZM143.087 138.022L143.44 138.958L144.577 139.037L146.462 137.12L146.496 136.438L144.284 136.404L143.087 138.022ZM178.776 176.187L177.129 175.154L175.011 174.529L174.454 174.739L175.951 175.91L178.039 176.682L178.823 176.638L178.776 176.187ZM193.074 178.942L192.868 177.658L191.741 178.073L192.24 176.285L190.634 175.526L189.891 176.127L188.462 175.45L189.027 174.583L187.946 174.047L186.894 174.891L187.96 172.694L188.82 171.086L189.131 170.387L188.384 170.273L186.986 171.162L185.988 172.615L184.324 176.588L182.971 178.058L183.672 178.715L182.669 179.561L182.916 180.268L186.042 180.34L187.773 180.198L189.318 180.775L188.181 181.885L189.142 181.967L191.01 179.912L191.459 180.216L191.11 182.15L192.168 182.592L192.897 182.505L193.575 180.429L193.074 178.942ZM180.898 181.678L179.283 184.297L176.622 184.631L174.53 183.477L174.004 181.713L173.493 179.15L175.014 177.525L173.589 176.325L171.179 176.57L167.801 178.598L165.215 181.729L163.847 182.115L165.701 179.93L168.024 176.728L170.078 175.637L171.426 173.85L173.095 173.676L175.512 173.694L178.957 174.221L181.68 173.815L183.706 171.733L186.361 170.821L187.516 169.914L188.685 168.934L188.568 165.954L187.921 164.936L186.666 164.575L186.028 162.25L184.994 161.361L182.426 160.635L180.978 159.014L178.836 157.39L179.483 155.554L177.702 151.958L175.604 147.998L174.35 145.136L173.284 146.636L171.744 150.113L169.411 151.821L168.244 150.008L166.773 149.522L166.238 145.506L166.286 142.751L163.414 142.499L162.925 141.198L160.941 139.224L159.441 138.053L158.107 138.962L156.451 138.626L153.69 137.68L152.569 138.483L153.107 143.754L153.809 146.693L151.908 149.997L153.865 152.307L154.958 154.858L155.09 156.823L154.197 158.836L152.372 160.824L149.794 162.135L150.93 163.587L151.771 167.839L150.899 170.526L149.659 171.363L147.263 168.903L146.096 165.934L145.595 163.2L145.858 160.791L144.106 160.519L141.447 160.356L139.74 159.16L137.722 158.372L136.57 157.005L134.959 155.893L131.967 154.613L129.713 155.199L128.96 152.932L128.234 150.065L125.868 149.547L125.957 145.864L126.581 143.289L128.328 139.498L130.299 136.682L132.173 136.24L132.28 133.915L133.551 132.374L135.857 132.131L137.725 129.608L138.195 127.944L139.747 124.655L140.228 122.644L141.893 123.855L144.133 123.237L147.286 120.385L147.491 118.352L146.356 116.066L147.554 113.735L147.457 111.515L145.295 109.244L142.914 108.561L140.625 108.202L140.537 113.208L139.362 116.974L137.68 120.02L136.123 117.179L136.602 113.959L134.677 111.076L132.524 114.575L132.531 109.984L129.536 109.05L130.965 106.745L128.777 101.238L127.148 98.9953L125.024 98.167L123.12 101.859L122.99 107.226L124.87 109.118L126.596 111.936L125.867 116.363L124.572 116.247L123.546 119.627L123.556 115.604L121.06 114.12L119.628 114.887L119.814 117.571L117.465 117.469L114.964 118.143L112.119 116.216L110.32 116.56L108.701 114.197L107.401 113.14L106.113 113.584L104.152 113.788L103.112 115.289L104.756 117.12L103.004 119.26L101.287 116.719L99.9152 117.467L95.5678 117.968L92.6566 117.056L94.9227 114.91L92.7502 112.668L91.1722 112.955L88.9555 112.195L85.186 110.535L82.7228 108.597L80.772 108.328L80.1637 109.682L78.1847 110.435L77.967 106.902L75.8226 110.064L73.0992 105.859L71.986 105.346L71.6264 107.59L70.4246 108.683L69.3183 106.734L66.6822 107.911L64.2695 109.95L61.877 109.388L59.9262 110.821L58.5125 112.703L56.8329 112.291L54.2973 110.108L51.293 108.996L51.2821 124.878L51.2734 145.23L52.8595 145.326L54.4283 146.22L55.553 147.619L56.9839 149.685L58.551 147.931L60.168 146.901L61.0228 148.541L62.1079 149.821L63.5825 151.214L64.5895 153.393L66.2364 156.771L68.9748 158.612L69.0196 160.406L68.124 161.759L68.1579 163.186L70.1064 165.167L70.389 167.328L72.4495 168.452L72.2203 170.055L73.1176 172.329L76.0346 173.377L77.1852 174.461L80.3033 176.889L80.5192 176.895H85.0935H89.8751H91.4583H96.3674H101.119H105.951H110.786H116.259L121.77 176.894L125.103 176.895L125.108 175.951L125.653 175.939L125.939 177.286L126.44 177.699L127.565 177.848L129.209 178.234L130.772 178.982L132.076 178.669L134.057 179.295L134.711 178.342L135.625 177.961L135.983 177.368L136.346 177.05L137.844 177.542L138.953 177.6L139.338 177.925L139.877 179.294L141.685 179.654L141.401 180.333L142.038 181.029L141.763 181.925L142.439 182.22L142.102 183.008L142.534 183.08L142.837 182.737L143.153 183.253L144.361 183.541L145.585 183.565L146.891 183.801L148.332 184.249L148.857 184.97L149.901 186.715L149.382 187.461L148.073 187.151L147.26 185.749L147.464 187.177L146.696 188.423L146.78 189.479L146.647 190.096L145.605 190.824L144.848 192.025L144.493 192.784L145.377 192.92L146.573 192.23L147.276 191.622L147.755 191.522L148.641 191.742L149.069 191.402L149.855 191.126L151.258 190.857V190.858V190.857L151.115 190.196L151.038 190.221L150.547 190.335L149.905 190.127L150.386 189.37L150.878 189.107L152.014 188.783L153.376 188.48L154.09 188.901L154.54 188.412L155.05 188.102L155.393 188.267L155.411 188.302L157.06 186.733L157.786 186.316L160.234 186.301L163.202 186.299L163.363 185.737L163.878 185.622L164.562 185.269L165.134 184.223L165.625 182.415L166.854 180.636L167.389 181.258L168.469 180.856L169.184 181.538L169.183 184.711L170.236 186.004L172.026 185.727L174.604 185.652L171.808 187.525L171.869 189.416L173.092 189.579L174.892 187.974L176.49 187.064L180.057 185.714L182.05 184.211L181.009 183.372L180.898 181.678ZM150.071 140.833L150.702 139.039L150.292 138.331L149.633 138.255L149.011 139.291L148.936 139.528L149.359 140.546L150.071 140.833ZM68.124 161.759L69.0196 160.407L68.124 161.759Z" fill="white" stroke="#2A8086" stroke-width="0.561274"/>
<path d="M328.033 261.599L327.935 263.473L328.581 263.69L328.063 264.258L327.444 264.683L326.828 265.517L326.49 266.261L326.399 267.546L326.026 268.157L326.012 269.363L325.549 269.81L325.489 270.762L325.268 270.886L325.119 271.762L325.524 272.49L325.627 274.424L325.916 275.902L325.755 276.737L326.078 277.671L327.012 278.573L327.881 280.608L327.247 280.444L325.084 280.717L324.652 280.91L324.193 281.944L324.554 282.659L324.268 284.584L324.068 286.222L324.503 286.513L325.629 287.15L326.071 286.852L326.206 288.621L324.973 288.608L324.312 287.704L323.718 287.005L322.484 286.777L322.123 285.92L321.138 286.436L319.848 286.208L319.31 285.466L318.287 285.315L317.532 285.355L317.44 284.848L316.884 284.807L316.151 284.711L315.154 284.955L314.453 284.915L314.055 285.064L314.141 283.128L313.604 282.525L313.485 281.529L313.723 280.553L313.396 279.93L313.366 278.914L311.412 278.928L311.553 278.347L310.731 278.353L310.644 278.632L309.645 278.695L309.241 279.635L309 280.04L308.11 279.812L307.578 280.039L306.513 280.17L305.896 279.325L305.526 278.803L305.064 277.837L304.667 276.637L299.914 276.616L299.349 276.809L298.882 276.779L298.217 276.995L297.992 276.497L298.402 276.327L298.452 275.626L298.715 275.213L299.301 274.876L299.725 275.039L300.276 274.425L301.153 274.44L301.256 274.895L301.858 275.179L302.805 274.173L303.744 273.39L304.151 272.877L304.097 271.558L304.796 270.003L305.535 269.178L306.595 268.407L306.78 267.897L306.82 267.31L307.083 266.755L306.998 265.848L307.199 264.43L307.514 263.431L307.996 262.575L308.092 261.607L308.237 260.489L308.863 259.674L309.726 259.157L311.051 259.703L312.077 260.295L313.256 260.453L314.457 260.766L314.939 259.797L315.16 259.673L315.894 259.835L317.687 259.033L318.323 259.373L318.844 259.324L319.086 258.934L319.684 258.797L320.896 258.965L321.929 259.002L322.46 258.832L323.436 260.157L324.16 260.352L324.59 260.083L325.335 260.188L326.232 259.849L326.615 260.534L328.033 261.599Z" fill="white" stroke="#2A8086" stroke-width="0.561274"/>
<path d="M584.556 124.969L582.959 126.676L580.319 127.077L580.28 130.79L579.634 131.564L578.127 131.453L576.898 130.152L574.757 129.051L574.397 127.391L572.761 126.758L570.929 127.261L570.055 125.9L570.404 124.434L568.475 125.373L569.202 127.208L568.288 128.835L568.276 128.856L566.206 130.513L564.118 130.238L565.571 132.216L566.53 135.203L567.274 136.161L567.46 137.616L567.044 138.536L564.043 137.78L559.541 140.371L558.109 140.766L555.644 143.119L553.306 145.132L552.715 146.599L550.411 144.359L546.214 146.897L545.481 145.703L543.93 147.079L541.776 146.64L541.257 148.726L539.324 151.724L539.382 152.951L541.217 153.626L541.001 157.91L539.505 158.017L538.815 160.403L539.486 161.611L536.669 163.029L536.11 166.133L533.709 166.785L533.226 169.464L530.904 171.867L530.309 170.095L529.619 166.25L528.721 160.134L529.495 156.139L530.854 154.375L530.938 152.973L533.44 152.295L536.318 148.4L539.09 145.11L541.985 142.485L543.28 137.679L541.323 137.973L540.356 140.8L536.271 144.454L534.951 140.354L530.793 141.502L526.762 146.994L528.092 148.934L524.497 149.749L522.007 150.069L522.123 147.802L519.62 147.32L517.624 148.872L512.7 148.332L507.402 149.262L502.184 155.196L496.012 161.961L498.549 162.312L499.341 164.036L500.906 164.642L501.937 163.276L503.703 163.454L506.029 166.436L506.083 168.69L504.825 171.282L504.689 174.307L503.962 178.241L501.534 181.695L500.995 183.313L498.809 185.991L496.639 188.592L495.599 189.904L493.453 191.193L492.436 191.221L491.425 190.154L489.263 191.758L489.011 192.481L488.785 192.101L488.776 190.993L489.598 190.934L489.83 188.318L489.406 186.389L490.788 185.586L492.743 185.989L493.826 183.756L494.378 181.193L495.004 180.325L495.85 178.164L493.188 178.876L491.792 179.822L489.344 179.819L488.692 177.553L486.785 175.81L483.981 175.018L483.386 172.557L482.824 170.988L482.221 169.875L481.225 167.227L479.811 166.244L477.401 165.443L475.265 165.516L473.263 166.001L471.934 167.33L472.817 167.959L472.837 169.408L471.941 170.241L470.487 172.955L470.502 174.063L468.232 175.636L466.299 174.699L464.377 174.906L463.534 174.069L462.567 173.798L460.209 175.555L458.088 175.964L456.608 176.574L454.579 176.174L453.086 176.2L452.108 174.934L450.531 173.733L448.916 173.401L446.879 173.73L445.357 174.195L443.069 173.138L442.762 171.229L440.868 170.568L439.406 170.265L437.602 169.191L435.934 171.867L436.588 173.36L435.022 175.103L432.693 174.477L431.085 174.387L430.009 173.214L428.329 173.177L426.928 172.399L424.478 173.589L421.405 175.737L419.707 176.164L419.076 176.366L418.222 174.853L416.147 175.186L415.462 174.127L414.336 173.64L413.56 172.178L412.671 171.719L410.357 172.374L408.138 170.901L407.28 172.241L403.681 165.591L401.626 163.489L402.215 162.625L398.179 165.207L396.634 165.361L396.767 163.877L394.698 162.94L393.017 163.61L392.509 160.731L389.615 160.122L388.167 161.29L384.136 162.319L383.35 163.002L377.323 163.957L376.585 164.887L377.748 166.73L376.201 167.421L376.503 168.142L374.957 169.419L377.567 171.198L377.164 172.408L374.902 172.298L374.434 173.051L372.374 171.734L369.821 171.785L368.111 172.858L366.205 171.829L362.654 170.047L360.138 170.114L356.813 172.9L356.613 174.734L354.957 173.279L353.672 176.019L354.142 176.522L353.213 178.368L354.58 179.998L355.775 179.931L356.802 181.517L356.639 182.724L357.457 183.101L356.722 184.475L355.161 184.854L353.56 187.202L355.024 189.325L354.865 190.81L356.624 193.37L355.663 194.235L355.386 194.778L354.673 194.632L353.567 193.331L353.114 193.258L352.101 192.758L351.608 191.868L350.106 191.412L349.13 191.754L348.848 191.349L346.654 190.297L344.283 189.94L342.922 189.562L342.725 189.823L340.672 187.943L338.834 187.094L337.443 185.762L338.615 185.397L339.952 183.47L339.051 182.548L341.425 181.59L341.382 181.074L339.936 181.455L339.987 180.402L340.817 179.737L342.375 179.561L342.629 178.76L342.273 177.423L342.927 176.14L342.908 175.415L340.534 174.605L339.592 174.632L338.598 173.459L337.363 173.857L335.317 172.971L335.352 172.472L334.78 171.366L333.495 171.242L333.362 170.442L333.764 169.918L332.735 168.439L331.065 168.692L330.575 168.561L330.169 169.157L329.567 169.051L329.171 167.364L328.793 166.479L329.104 166.229L330.403 166.322L331.03 165.735L330.565 165.016L329.479 164.538L329.576 164.045L328.921 163.546L327.911 161.734L328.256 160.98L328.099 159.654L326.524 158.974L325.679 159.315L325.451 158.605L323.755 157.883L323.237 156.166L323.1 154.735L322.324 154.049L323.014 153.096L322.536 150.246L323.682 148.446L323.44 147.895L325.27 146.131L323.583 144.589L327.031 140.335L328.527 138.352L329.133 136.569L326.749 134.124L327.407 131.743L325.957 128.955L327.042 125.644L325.169 121.073L326.655 117.926L324.188 115.059L324.423 111.955L325.724 111.539L328.465 109.708L330.127 108.092L332.772 110.884L337.183 111.962L343.269 116.928L344.505 118.943L344.611 121.698L342.823 123.821L340.193 124.881L333.003 121.829L331.82 122.346L334.446 125.274L334.549 127.086L334.654 130.965L336.727 132.094L337.986 133.046L338.194 131.262L337.224 129.653L338.249 128.214L342.143 130.568L343.499 129.653L342.415 126.852L346.169 122.979L347.656 123.211L349.159 124.607L350.098 121.843L348.754 119.383L349.543 116.852L348.359 114.156L352.865 115.559L353.785 117.962L351.746 118.484L351.756 120.803L353.024 122.204L355.513 121.319L355.907 118.67L359.271 116.645L364.892 112.886L366.107 113.106L364.519 115.771L366.517 116.222L367.671 114.738L370.689 114.617L373.081 112.782L374.917 115.437L376.747 112.515L375.059 109.886L375.897 108.356L380.654 109.759L382.884 111.188L388.72 116.243L389.798 113.959L388.16 111.598L388.113 110.635L386.172 110.185L386.704 107.987L385.842 104.258L385.793 102.686L388.766 98.0963L389.823 93.2601L391.021 92.1813L395.285 93.6255L395.621 96.6028L394.094 100.786L395.096 102.383L395.614 105.794L395.248 112.155L397.025 114.872L396.333 117.748L393.179 123.607L395.02 124.195L395.66 122.751L397.432 121.708L397.86 119.667L399.254 117.663L398.315 115.216L399.067 112.296L397.306 111.926L396.919 109.388L398.204 104.633L396.112 100.593L398.994 97.1221L398.622 93.3199L399.425 93.1958L400.271 96.1765L399.637 101.155L401.36 102.07L400.626 98.4088L403.321 96.3529L406.664 96.0726L409.64 99.0482L408.208 94.6698L408.047 88.7634L410.848 87.6025L414.722 87.8575L418.212 87.0987L416.904 84.0076L418.768 79.9774L420.618 79.805L423.75 76.6382L428.002 75.7685L428.54 73.9573L432.769 73.3357L434.087 74.8327L437.702 71.2499L440.661 71.3642L441.104 68.3553L442.644 65.2913L446.446 62.2399L449.208 64.6571L447.015 66.4557L450.664 67.5569L451.099 71.023L452.57 69.3325L457.279 69.4261L460.91 72.7825L462.203 75.2819L461.802 78.6447L460.02 80.507L455.787 83.906L454.577 85.6747L456.575 86.4978L458.958 87.9638L460.407 86.8666L461.229 90.539L461.936 89.069L464.511 88.1643L469.679 89.1098L470.072 91.7384L476.805 92.5599L476.897 88.2671L480.315 89.2678L482.887 89.2367L485.487 92.1882L486.229 95.6567L485.276 97.8602L487.299 101.871L489.832 103.877L491.386 98.6053L493.97 100.901L496.714 99.5358L499.832 101.096L501.018 99.6743L503.653 100.388L502.49 95.5636L504.617 93.2274L519.163 96.709L520.535 99.7852L524.751 103.607L531.255 102.675L534.461 103.487L535.802 105.496L535.606 108.952L537.59 110.265L539.746 109.323L542.603 109.201L545.643 110.106L548.696 109.597L551.501 113.614L553.498 112.188L552.195 109.273L552.912 107.195L558.051 108.508L561.401 108.229L566.033 110.436L568.288 112.412L572.233 115.778L576.457 119.994L576.318 122.543L577.405 123.546L577.031 120.59L581.403 121.203L584.556 124.969ZM511.358 176.954L509.738 172.54L509.073 169.949L509.115 167.367L508.557 164.78L508.138 162.971L507.421 163.357L508.061 164.624L506.572 165.868L506.429 169.485L507.373 172.018L507.302 175.38L506.93 177.24L507.113 179.846L506.934 182.152L507.232 184.105L508.288 182.305L509.509 183.709L509.554 182.08L507.984 179.651L508.975 176.143L511.358 176.954ZM314.315 161.165L312.629 160.673L310.406 161.583L310.039 162.805L312.023 163.118L314.984 163.076L314.855 162.371L315.027 161.609L314.315 161.165ZM568.288 103.653L570.391 103.355L572.051 102.169L572.189 101.486L569.859 100.041L568.494 100.03L568.288 100.244L566.235 102.337L566.522 103.903L568.288 103.653ZM505.169 88.0925L503.641 90.3414L503.923 90.639L507.224 91.2616L509.666 91.2226L509.471 89.7468L507.183 87.5582L505.169 88.0925ZM519.286 82.6192L521.147 80.179L517.106 78.5275L514.103 77.5619L513.718 79.6212L516.711 82.0723L519.286 82.6192ZM504.851 81.6461L510.788 81.8161L512.055 77.1373L506.233 73.6499L501.98 73.3558L499.855 74.6081L498.989 79.0611L502.18 83.0897L504.851 81.6461ZM362.897 96.5511L361.25 97.6758L361.485 100.452L364.4 101.8L364.828 103.993L370.09 104.627L371.042 104.2L367.961 100.118L367.633 95.8003L370.158 90.5482L372.559 84.9078L377.562 79.0669L382.481 76.0005L388.188 72.7033L389.27 70.5744L388.151 67.8016L385.016 68.723L382.257 71.3033L376.897 72.5798L371.579 76.8358L367.977 80.1957L368.413 82.9932L364.557 88.1798L366.038 88.8806L362.843 93.6318L362.897 96.5511ZM447.611 57.5203L448.09 54.2345L444.007 49.4419L442.798 48.8761L441.474 49.8504L438.532 60.5372L447.611 57.5203ZM353.272 40.6818L355.016 42.9083L356.899 41.3613L357.123 39.7994L358.572 39.0687L360.734 37.7849L361.357 36.2775L358.968 34.0677L357.45 35.7353L356.525 38.1048L356.196 35.4343L353.749 35.5555L350.604 37.3661L354.189 37.6654L353.272 40.6818ZM428.666 48.1759L431.339 51.4674L435.826 53.8812L439.34 52.8455L439.737 45.0199L436.028 35.8059L432.899 30.6228L429.415 32.9831L425.233 39.781L427.43 41.6594L428.666 48.1759Z" fill="white" stroke="#2A8086" stroke-width="0.561274"/>
</svg>
