<svg width="640" height="472" viewBox="0 0 640 472" fill="none" xmlns="http://www.w3.org/2000/svg">
<path d="M-94.0502 122.296L-209.834 234.477C-217.61 242.011 -222 252.376 -222 263.204V381.84C-222 403.931 -204.091 421.84 -182 421.84H-112.327H224.5H523.28H753.221C757.757 421.84 762.26 422.611 766.537 424.121L895.688 469.718C899.966 471.228 904.469 472 909.005 472H1095.33C1099.46 472 1103.56 471.361 1107.49 470.106L1349.86 392.734C1353.8 391.479 1357.9 390.84 1362.03 390.84H1616H1716.77C1730.59 390.84 1743.44 383.7 1750.74 371.957L1785.97 315.278C1789.91 308.94 1792 301.625 1792 294.161V165.259C1792 143.168 1774.09 125.259 1752 125.259H1737.9C1729.33 125.259 1720.98 122.507 1714.09 117.408L1579.28 17.5969C1571.78 12.0413 1562.57 9.28574 1553.24 9.80772L1371.48 19.9852C1361.4 20.5495 1351.91 24.9045 1344.9 32.1763L1230.51 150.968C1222.97 158.798 1212.57 163.222 1201.7 163.222H1114.22C1105.98 163.222 1097.94 160.677 1091.2 155.936L997.254 89.8375C990.515 85.0964 982.476 82.5519 974.237 82.5519H774.378C765.129 82.5519 756.166 85.7573 749.014 91.6225L609.117 206.349C601.966 212.214 593.002 215.42 583.753 215.42H404.477C395.84 215.42 387.436 212.625 380.52 207.452L262.243 118.991C255.327 113.819 246.922 111.024 238.286 111.024H-66.2164C-76.6062 111.024 -86.5883 115.066 -94.0502 122.296Z" fill="#2A8086"/>
<path d="M-93.6591 100.121L-208.066 198.407C-216.911 206.006 -222 217.086 -222 228.748V326.057C-222 348.148 -204.091 366.057 -182 366.057H-119.871C-114.885 366.057 -109.944 365.125 -105.301 363.309L85.0384 288.861C89.6814 287.045 94.6231 286.113 99.6087 286.113H400.575C409.044 286.113 417.294 288.801 424.137 293.789L512.749 358.381C519.592 363.369 527.842 366.057 536.311 366.057H749.593C756.465 366.057 763.22 367.827 769.208 371.196L893.017 440.86C899.005 444.23 905.761 446 912.632 446H1093.94C1098.97 446 1103.96 445.051 1108.64 443.202L1218.71 399.717L1351.1 367.21C1354.22 366.444 1357.42 366.057 1360.64 366.057H1555.71C1563.51 366.057 1571.14 363.776 1577.66 359.495L1714.71 269.533C1721.23 265.252 1728.86 262.972 1736.66 262.972H1752C1774.09 262.972 1792 245.063 1792 222.972V143.085C1792 120.994 1774.09 103.085 1752 103.085H1736.66C1728.86 103.085 1721.23 100.804 1714.71 96.5236L1578.57 7.15893C1571.49 2.50689 1563.11 0.226519 1554.64 0.646873L1370.26 9.80096C1360.92 10.2648 1352.03 13.9889 1345.15 20.3254L1230.19 126.172C1222.81 132.971 1213.14 136.745 1203.1 136.745H1113.01C1105.53 136.745 1098.19 134.645 1091.84 130.683L996.616 71.2793C990.265 67.3174 982.93 65.217 975.445 65.217H773.08C764.627 65.217 756.392 67.8946 749.555 72.8657L608.576 175.38C601.739 180.351 593.504 183.028 585.051 183.028H403.231C395.367 183.028 387.678 180.71 381.124 176.364L261.638 97.1263C255.084 92.7802 247.395 90.4623 239.531 90.4623H-67.5934C-77.1573 90.4623 -86.4046 93.889 -93.6591 100.121Z" fill="#2A808D" fill-opacity="0.3"/>
</svg>
