<svg width="640" height="291" viewBox="0 0 640 291" fill="none" xmlns="http://www.w3.org/2000/svg">
<path d="M-54.808 79.7306L-119.231 142.149C-123.558 146.341 -126 152.108 -126 158.133V224.142C-126 236.434 -116.036 246.398 -103.744 246.398H-64.9772H122.435H288.678H416.618C419.142 246.398 421.647 246.828 424.027 247.668L495.888 273.038C498.268 273.879 500.773 274.308 503.297 274.308H606.968C609.265 274.308 611.548 273.952 613.736 273.254L748.594 230.204C750.782 229.505 753.065 229.15 755.362 229.15H896.673H952.74C960.433 229.15 967.58 225.177 971.642 218.644L991.246 187.107C993.438 183.58 994.6 179.51 994.6 175.357V103.636C994.6 91.344 984.636 81.3795 972.344 81.3795H964.497C959.728 81.3795 955.086 79.8481 951.254 77.0108L876.242 21.4756C872.067 18.3844 866.942 16.8512 861.755 17.1416L760.621 22.8044C755.013 23.1184 749.731 25.5415 745.834 29.5876L682.183 95.6839C677.988 100.04 672.2 102.502 666.152 102.502H617.479C612.894 102.502 608.422 101.086 604.672 98.4482L552.399 61.6706C548.65 59.0326 544.177 57.6168 539.593 57.6168H428.39C423.244 57.6168 418.257 59.4003 414.277 62.6638L336.438 126.498C332.459 129.762 327.471 131.545 322.325 131.545H222.575C217.77 131.545 213.093 129.99 209.245 127.112L143.435 77.892C139.587 75.0139 134.911 73.4586 130.105 73.4586H-39.3212C-45.1021 73.4586 -50.6562 75.708 -54.808 79.7306Z" fill="#2A8086"/>
<path d="M-54.808 96.4228L-119.231 158.841C-123.558 163.033 -126 168.8 -126 174.825V240.834C-126 253.126 -116.036 263.091 -103.744 263.091H-64.9772H122.435H288.678H416.618C419.142 263.091 421.647 263.52 424.027 264.36L495.888 289.73C498.268 290.571 500.773 291 503.297 291H606.968C609.265 291 611.548 290.644 613.736 289.946L748.594 246.896C750.782 246.198 753.065 245.842 755.362 245.842H896.673H953.603C961.431 245.842 968.684 241.729 972.703 235.011L991.444 203.68C993.51 200.227 994.6 196.278 994.6 192.255V120.328C994.6 108.036 984.636 98.0717 972.344 98.0717H964.497C959.728 98.0717 955.086 96.5403 951.254 93.7029L876.242 38.1677C872.067 35.0765 866.942 33.5433 861.755 33.8338L760.621 39.4965C755.013 39.8106 749.731 42.2337 745.834 46.2798L682.183 112.376C677.988 116.733 672.2 119.194 666.152 119.194H617.479C612.894 119.194 608.422 117.778 604.672 115.14L552.399 78.3628C548.65 75.7248 544.177 74.309 539.593 74.309H428.39C423.244 74.309 418.257 76.0925 414.277 79.3559L336.438 143.191C332.459 146.454 327.471 148.237 322.325 148.237H222.575C217.77 148.237 213.093 146.682 209.245 143.804L143.435 94.5842C139.587 91.7061 134.911 90.1508 130.105 90.1508H-39.3212C-45.1021 90.1508 -50.6562 92.4002 -54.808 96.4228Z" fill="#2A808D" fill-opacity="0.3"/>
<path d="M-54.6818 58.4132L-118.628 115.935C-123.32 120.156 -126 126.171 -126 132.482V191.01C-126 203.302 -116.036 213.266 -103.744 213.266H-69.3581C-66.4653 213.266 -63.6002 212.702 -60.9231 211.606L44.693 168.351C47.37 167.255 50.2351 166.691 53.128 166.691H220.132C225.012 166.691 229.756 168.294 233.635 171.255L282.697 208.702C286.576 211.662 291.321 213.266 296.201 213.266H414.362C418.336 213.266 422.237 214.33 425.66 216.347L494.255 256.761C497.678 258.778 501.579 259.841 505.552 259.841H606.012C608.932 259.841 611.822 259.267 614.52 258.151L675.617 232.877L749.169 213.967C750.98 213.501 752.842 213.266 754.711 213.266H862.87C867.371 213.266 871.767 211.901 875.477 209.351L951.459 157.123C955.168 154.573 959.564 153.208 964.066 153.208H972.344C984.636 153.208 994.6 143.244 994.6 130.952V82.3139C994.6 70.0221 984.636 60.0577 972.344 60.0577H964.066C959.564 60.0577 955.168 58.6926 951.459 56.1426L876.003 4.277C871.968 1.5033 867.131 0.137777 862.241 0.391987L760.201 5.69659C754.845 5.97502 749.77 8.178 745.909 11.9003L682.083 73.4346C677.935 77.4337 672.398 79.6683 666.636 79.6683H617.059C612.736 79.6683 608.507 78.4094 604.888 76.0453L552.184 41.6187C548.565 39.2546 544.335 37.9957 540.013 37.9957H427.94C423.069 37.9957 418.333 39.5935 414.457 42.5442L336.258 102.084C332.383 105.035 327.646 106.633 322.776 106.633H222.142C217.605 106.633 213.175 105.246 209.448 102.658L143.232 56.6787C139.505 54.0907 135.076 52.7037 130.538 52.7037H-39.7974C-45.2936 52.7037 -50.5955 54.7374 -54.6818 58.4132Z" fill="#2A808D" fill-opacity="0.3"/>
</svg>
