<svg width="148" height="280" viewBox="0 0 148 280" fill="none" xmlns="http://www.w3.org/2000/svg">
<path d="M21.1833 31H10.6833L15.1833 75L16.1833 110H28.1833L23.1833 75L21.1833 31Z" fill="#216E7A"/>
<path d="M26.7278 116H18.2908C17.6983 116 17.2357 116.512 17.296 117.102L21.6833 160L22.6556 194.029C22.671 194.57 23.114 195 23.6552 195H33.5303C34.1389 195 34.6064 194.461 34.5203 193.859L29.6833 160L27.7267 116.955C27.7025 116.421 27.2624 116 26.7278 116Z" fill="#216E7A"/>
<path d="M47.1621 146L37.5381 146C36.95 146 36.4889 146.505 36.5422 147.091L38.6159 169.852L38.6159 190.387C38.6159 190.982 39.1312 191.445 39.7221 191.382L49.9766 190.286C50.5468 190.225 50.949 189.698 50.8575 189.132L47.6981 169.59C47.6885 169.53 47.6842 169.47 47.6855 169.409L48.1619 147.021C48.1738 146.461 47.7227 146 47.1621 146Z" fill="#216E7A"/>
<path d="M33.2278 201H24.7908C24.1983 201 23.7357 201.512 23.796 202.102L28.1749 244.917C28.1805 244.972 28.1816 245.028 28.178 245.083L27.252 259.436C27.2148 260.012 27.6723 260.5 28.2499 260.5H37.9712C38.5998 260.5 39.0725 259.927 38.953 259.31L36.1972 245.072C36.188 245.024 36.1822 244.976 36.18 244.927L34.2267 201.955C34.2025 201.421 33.7624 201 33.2278 201Z" fill="#216E7A"/>
<path d="M4.8834 219.387C10.7019 215.918 19.0407 204.294 19.6483 195.498C19.6864 194.947 19.2432 194.602 18.7814 194.905C15.152 197.286 3.94012 209.667 3.64182 218.656C3.61955 219.327 4.30673 219.731 4.8834 219.387Z" fill="#216E7A"/>
<path d="M1.00198 186.18C3.14249 192.385 11.4219 193.413 17.1885 193.159C17.5616 193.143 17.9238 192.907 17.9047 192.534C17.7549 189.604 8.1882 185.553 1.90167 185.052C1.27232 185.001 0.79609 185.583 1.00198 186.18Z" fill="#216E7A"/>
<path d="M33.4865 133.495C40.7416 131.936 53.0736 122.974 55.9843 114.549C56.1647 114.027 55.8287 113.558 55.2939 113.696C50.8338 114.846 35.0482 123.745 32.5059 132.456C32.3244 133.078 32.8535 133.631 33.4865 133.495Z" fill="#216E7A"/>
<path d="M133.636 160.3C129.26 166.293 116.056 173.912 107.174 173.142C106.624 173.095 106.333 172.597 106.676 172.165C109.541 168.558 124.093 157.759 133.086 158.981C133.727 159.068 134.018 159.777 133.636 160.3Z" fill="#216E7A"/>
<path d="M146.271 55.9241C138.467 62.939 117.463 69.3555 106.102 64.9756C105.587 64.777 105.414 64.2072 105.831 63.8451C110.276 59.9873 134.801 49.189 146.068 54.4862C146.643 54.7562 146.742 55.4998 146.271 55.9241Z" fill="#216E7A"/>
<path d="M113.919 33.2697C114.432 41.4772 108.599 57.124 100.67 62.1721C100.205 62.4687 99.6583 62.2597 99.643 61.7076C99.5064 56.7723 104.312 37.2227 112.677 32.5734C113.231 32.2654 113.88 32.6369 113.919 33.2697Z" fill="#216E7A"/>
<path d="M128.733 87.9074C124.988 79.9922 112.625 68.8142 104.18 68.7566C103.628 68.7528 103.273 69.2341 103.525 69.726C105.861 74.2996 119.531 89.7531 128.073 89.1144C128.669 89.0698 128.989 88.4476 128.733 87.9074Z" fill="#216E7A"/>
<path d="M68.9449 29.6021L58.4622 29L60.4316 73.1856L59.4228 108.185L71.4031 108.874L68.4184 73.6444L68.9449 29.6021Z" fill="#216E7A"/>
<path d="M99.6318 1.69669L89.2698 0L86.6007 44.1489L81.9319 78.8505L93.7742 80.7896L94.4955 45.4416L99.6318 1.69669Z" fill="#216E7A"/>
<path d="M111.568 94.5294L98.0286 92L94.3801 136.111L88.1517 170.577L103.625 173.468L104.696 138.038L111.568 94.5294Z" fill="#216E7A"/>
<path d="M69.6056 114.78L61.1826 114.296C60.591 114.262 60.0998 114.747 60.1262 115.339L62.0463 158.419L61.0656 192.447C61.05 192.988 61.4675 193.443 62.0078 193.474L71.8667 194.04C72.4743 194.075 72.9719 193.564 72.9205 192.958L70.0331 158.877L70.5482 115.791C70.5546 115.256 70.1394 114.811 69.6056 114.78Z" fill="#216E7A"/>
<path d="M91.368 86.4756L83.0419 85.1123C82.4572 85.0166 81.9179 85.4474 81.8821 86.0388L79.2799 129.082L74.7407 162.821C74.6685 163.357 75.0361 163.853 75.5702 163.941L85.3155 165.537C85.9161 165.635 86.4645 165.179 86.4769 164.57L87.1747 130.375L92.1996 87.5791C92.2619 87.0481 91.8956 86.562 91.368 86.4756Z" fill="#216E7A"/>
<path d="M100.765 179.042L89.2756 176.895C88.6808 176.784 88.1079 177.219 88.0583 177.819L84.5036 220.796L78.3579 257.121C78.2629 257.683 78.6602 258.196 79.2303 258.247L92.106 259.403C92.6874 259.455 93.2053 259.007 93.231 258.428L94.8192 222.723L101.545 180.144C101.627 179.622 101.285 179.139 100.765 179.042Z" fill="#216E7A"/>
<path d="M71.2348 200.014L62.7963 199.529C62.2053 199.495 61.7143 199.979 61.7398 200.571L63.1802 233.928C63.1823 233.976 63.1809 234.024 63.176 234.072L60.7853 257.501C60.7291 258.052 61.1314 258.544 61.6827 258.598L74.4936 259.852C75.1338 259.915 75.6658 259.366 75.5826 258.728L72.2679 233.325L72.1775 201.009C72.176 200.48 71.7629 200.044 71.2348 200.014Z" fill="#216E7A"/>
<path d="M43.5158 86.2623C40.8776 94.0961 49.0667 102.718 55.3891 107.704C55.6753 107.93 56.0877 107.996 56.3284 107.722C58.6836 105.043 51.3358 92.0469 44.9636 85.9318C44.4909 85.4782 43.7249 85.6413 43.5158 86.2623Z" fill="#216E7A"/>
<path d="M121.785 199.041C114.2 198.513 109.237 188.26 106.844 180.912C106.732 180.569 106.81 180.158 107.152 180.044C110.248 179.005 119.231 190.015 122.615 197.812C122.88 198.421 122.447 199.088 121.785 199.041Z" fill="#216E7A"/>
<path d="M49.5212 195.459L39.8972 195.459C39.3091 195.459 38.848 195.964 38.9013 196.549L40.975 219.311L40.975 258.887C40.975 259.482 41.4903 259.945 42.0813 259.882L52.4128 258.778C52.9533 258.72 53.3486 258.241 53.3031 257.7L50.0427 218.959L50.521 196.48C50.5329 195.919 50.0818 195.459 49.5212 195.459Z" fill="#216E7A"/>
</svg>
