<svg width="42" height="42" viewBox="0 0 42 42" fill="none" xmlns="http://www.w3.org/2000/svg">
<rect x="0.75" y="0.75" width="40.5" height="40.5" rx="20.25" stroke="#19707D" stroke-width="1.5"/>
<path d="M28.513 23.5834L21.013 31.0114L13.513 23.5834C13.0183 23.102 12.6286 22.5234 12.3685 21.884C12.1084 21.2447 11.9836 20.5584 12.0017 19.8683C12.0199 19.1783 12.1808 18.4995 12.4742 17.8747C12.7675 17.2499 13.1871 16.6927 13.7065 16.238C14.2258 15.7833 14.8337 15.4411 15.4918 15.2329C16.1499 15.0247 16.844 14.955 17.5304 15.0282C18.2167 15.1014 18.8805 15.316 19.4799 15.6583C20.0792 16.0007 20.6012 16.4634 21.013 17.0174C21.4265 16.4674 21.9491 16.0087 22.5481 15.67C23.1471 15.3313 23.8095 15.1199 24.4939 15.0489C25.1784 14.978 25.8701 15.0491 26.5258 15.2578C27.1815 15.4665 27.787 15.8083 28.3045 16.2618C28.8221 16.7153 29.2404 17.2707 29.5334 17.8933C29.8264 18.5159 29.9877 19.1923 30.0073 19.8801C30.0269 20.5679 29.9043 21.2524 29.6471 21.8907C29.39 22.5289 29.0039 23.1072 28.513 23.5894" stroke="#19707D" stroke-width="1.5" stroke-linecap="round" stroke-linejoin="round"/>
</svg>
