<svg width="42" height="42" viewBox="0 0 42 42" fill="none" xmlns="http://www.w3.org/2000/svg">
<rect x="0.75" y="0.75" width="40.5" height="40.5" rx="20.25" stroke="#19707D" stroke-width="1.5"/>
<path d="M21.9961 31H19.8281V18.3203H21.9961V31ZM19.6523 14.957C19.6523 14.6055 19.7578 14.3086 19.9688 14.0664C20.1875 13.8242 20.5078 13.7031 20.9297 13.7031C21.3516 13.7031 21.6719 13.8242 21.8906 14.0664C22.1094 14.3086 22.2188 14.6055 22.2188 14.957C22.2188 15.3086 22.1094 15.6016 21.8906 15.8359C21.6719 16.0703 21.3516 16.1875 20.9297 16.1875C20.5078 16.1875 20.1875 16.0703 19.9688 15.8359C19.7578 15.6016 19.6523 15.3086 19.6523 14.957Z" fill="#19707D"/>
</svg>
