<svg width="169" height="155" viewBox="0 0 169 155" fill="none" xmlns="http://www.w3.org/2000/svg">
<path d="M168.508 79.5C169.749 61.1566 153.422 33.9944 148.008 33C148.008 33 118.008 79.5 104.008 107.5C104.448 111.844 106.27 114.142 106.008 118.5C105.737 123 100.353 125.541 102.508 129.5C104.872 133.842 115.008 131.5 115.008 131.5C129.008 129 130.008 108.5 131.508 108C134.008 111.5 136.651 122.5 135.508 126.5C134.508 130 131.371 131.732 132.508 135C133.773 138.637 137.508 140 141.008 140C149.508 140.5 156.508 134 161.008 128C169.508 115 169.508 92.5002 168.508 79.5Z" fill="#0A5D69"/>
<rect x="40" y="17" width="123" height="92" rx="46" fill="#F3F6F7"/>
<path d="M87.4244 107.5C96.9244 79.5 90.9243 31.5 68.4243 21C60.0895 21.3358 47.4244 29 47.4244 29C47.4244 29 18.4487 63.9211 15.4244 91C15.9244 101.5 21.9249 118.5 19.9244 133C17.4244 135.39 16.9244 136 15.4244 138.5C13.4244 142.5 18.9243 145 22.9244 145C27.9244 145 34.3002 143.159 39.4244 138.5C46.0529 132.473 45.4243 124.5 47.4244 117C50.9244 121.5 50.4243 138.5 47.9243 142.5C44.4243 148.5 44.9244 150.5 47.4244 153C54.4244 156.833 67.9244 153 73.9244 145C82.4244 131.5 83.1399 123 87.4244 107.5Z" fill="#0A5D69"/>
<circle cx="13.5" cy="19.5" r="13.5" fill="#0A5D69"/>
<circle cx="54.5" cy="13.5" r="13.5" fill="#0A5D69"/>
<rect y="9" width="79" height="71" rx="35.5" fill="#F3F6F7"/>
<ellipse cx="54.6304" cy="38.6025" rx="8.85868" ry="11.6027" transform="rotate(-31.8762 54.6304 38.6025)" fill="#0A5D69"/>
<ellipse rx="8.85868" ry="11.6027" transform="matrix(-0.978754 -0.205037 -0.205037 0.978754 21.0497 48.1725)" fill="#0A5D69"/>
<path d="M33.4999 57C34.2331 60.7197 40.9999 62.5 41.9997 62.5C42.9995 62.5 49.4845 56.889 47.4997 53C45.4997 49.5 33 52.5 33.4999 57Z" fill="#0A5D69"/>
<ellipse cx="23.5" cy="46" rx="2.5" ry="3" fill="#F3F6F7"/>
<ellipse cx="50.5" cy="38" rx="2.5" ry="3" fill="#F3F6F7"/>
</svg>
