<svg width="148" height="295" viewBox="0 0 148 295" fill="none" xmlns="http://www.w3.org/2000/svg">
<path d="M85.6113 265.885C84.4967 261.379 84.9181 253.061 84.9181 253.061L64.815 244.049C64.815 244.049 66.6504 249.529 66.2014 253.061C65.8179 256.078 64.0191 257.356 63.4286 260.339C62.7454 263.792 64.2283 265.924 63.4286 269.351C62.8631 271.775 61.0024 275.243 61.0024 275.243C61.0024 275.243 58.2248 274.6 56.8431 273.51C54.8921 271.972 54.6334 270.277 53.7237 267.965C51.2956 261.793 54.4169 250.981 53.7237 250.981C53.0305 250.981 35.7003 262.766 35.7003 262.766C35.7003 262.766 38.0275 267.906 38.4731 271.431C39.1563 276.835 38.3472 280.506 41.9391 285.295C43.4296 286.534 46.445 287.375 46.445 287.375C46.445 287.375 56.1499 296.386 55.8033 293.96C55.8033 290.841 55.1101 285.988 55.1101 285.988C55.1101 285.988 75.9063 295.693 75.9063 293.96C76.5996 291.187 73.4801 287.375 73.4801 287.375C73.4801 287.375 80.7588 291.88 80.0656 289.801C79.5814 288.348 78.6464 286.746 77.7853 285.447C78.1656 285.755 78.5851 285.969 79.0258 285.988C81.4636 286.095 81.1054 280.096 81.1054 280.096C81.1054 280.096 92.5434 287.375 97.7424 287.375C98.9304 285.078 98.4356 280.789 98.4356 280.789C98.4356 280.789 106.754 283.562 110.567 283.215C109.874 278.709 106.608 277.467 103.288 274.55C97.5129 269.476 89.0773 267.618 85.6113 265.885Z" fill="#0A5D69"/>
<path d="M143.494 2.11945C144.584 2.56954 145.898 3.40909 146.825 4.04693C147.304 4.37708 147.159 5.09866 146.594 5.23841C145.414 5.53001 143.723 5.95086 142.454 6.2787C136.19 7.89696 132.56 8.48945 126.511 10.7846C118.983 13.6404 114.63 15.3772 108.141 20.1429C105.123 22.3589 103.303 23.5432 100.862 26.3817L100.833 26.4149C97.2564 30.5743 94.8329 33.3925 94.2763 38.8595C94.1255 40.3408 94.2763 42.6721 94.2763 42.6721C94.2763 42.6721 90.6211 44.9284 88.0375 45.7916C81.1054 48.2177 55.8033 37.8196 55.8033 26.7283C58.5761 18.0631 64.0185 10.4161 73.8267 6.2787C76.5505 5.1297 78.1852 4.65972 81.1054 4.19907C84.8491 3.60852 87.0263 3.98546 90.8103 4.19907C96.5439 4.52275 99.627 6.43151 105.368 6.2787C109.75 6.16205 112.137 5.27992 116.459 4.54568C123.525 3.34523 127.316 0.976484 134.482 1.07964C138.025 1.13062 140.22 0.767266 143.494 2.11945Z" fill="#0A5D69"/>
<path d="M74.8665 42.3255C79.4232 44.3066 86.8554 45.5074 88.4313 45.747C88.5495 45.765 88.587 45.9137 88.4959 45.9911L81.7986 51.6838L68.9743 61.3887C68.9743 61.3887 60.1498 69.095 56.8431 75.5995C55.2709 78.6923 54.8889 80.65 53.7237 83.918C50.8193 92.0637 47.1382 105.061 47.1382 105.061C47.1382 105.061 44.6112 114.1 41.2459 118.925C39.2719 121.756 37.6119 122.901 35.3537 125.51C31.577 129.875 28.5881 131.792 25.9953 136.948C22.7156 143.471 23.9908 147.393 22.5293 155.318C20.6064 165.746 16.637 183.74 16.637 183.74V188.939C16.637 195.572 15.9363 199.327 16.637 205.923C17.3242 212.39 20.1031 222.213 20.1031 222.213L27.7927 246.884C27.8675 247.124 27.5401 247.266 27.4216 247.044C25.9494 244.291 23.1899 239.059 21.4895 235.384C19.0633 228.799 18.3585 222.429 15.9438 214.241C14.9072 210.726 13.2846 205.656 12.6984 203.834C12.6345 203.635 12.3517 203.646 12.3004 203.848L6.93211 224.986C6.93211 224.986 4.15928 232.611 1.38644 232.958C-0.303261 231.544 0.346634 227.412 0.346634 227.412C0.346634 227.412 3.63916 217.148 5.1991 210.429C6.75421 203.73 6.97589 199.843 8.31853 193.098C8.96642 189.844 9.50031 188.052 10.0516 184.78C10.3982 178.194 10.7218 167.248 11.0914 156.012C11.3852 147.079 10.5057 141.981 11.7846 133.136C12.4569 128.485 13.0646 125.908 14.2108 121.351C16.4454 112.468 18.3904 107.656 21.8361 99.1686C24.8658 91.7055 27.384 87.8789 30.5012 80.4519C32.9722 74.5647 33.6058 70.9454 36.3935 65.2013C39.5761 58.6436 42.5737 55.6379 46.0984 49.2575C48.528 44.8594 50.0338 42.4475 51.9907 37.8196C53.5713 34.0815 55.3444 28.2593 55.7277 26.9816C55.7601 26.8738 55.8979 26.8478 55.9681 26.9357C56.7845 27.9575 60.474 32.5079 63.4286 35.0468C67.4443 38.4973 70.0111 40.2144 74.8665 42.3255Z" fill="#0A5D69"/>
<path d="M121.658 152.892C119.995 146.381 116.112 136.602 116.112 136.602L103.981 209.389C103.981 209.389 106.061 219.094 112.3 217.361C116.112 215.628 120.272 212.508 122.351 208.349C124.03 205.262 124.094 203.131 124.777 199.684C125.859 194.225 125.794 191.037 125.817 185.473C125.846 178.739 125.338 174.935 124.453 168.308L124.431 168.143C123.63 162.143 123.156 158.757 121.658 152.892Z" fill="#0A5D69" stroke="#0A5D69" stroke-width="0.693208"/>
<path d="M93.5832 42.6721C90.8104 42.6721 89.7705 44.0585 89.0774 44.7517C86.3045 47.5246 84.8908 48.5975 82.1453 50.9906C76.9977 55.4774 73.0776 56.1819 68.2811 61.0421C60.3928 69.0353 55.6578 74.2849 52.6839 84.9578C49.2266 97.3655 44.5345 112.337 37.0867 123.084C33.274 126.897 27.5551 131.403 24.9556 136.602C21.1429 144.227 16.6371 163.29 16.6371 182.7C16.6371 190.697 15.5318 195.164 15.9439 203.15C17.6769 215.628 20.1031 224.986 23.9158 237.464C27.7819 248.43 32.2342 256.874 36.3935 264.499C42.6324 263.979 49.9111 261.033 51.2975 259.993C52.6839 258.953 50.6043 251.674 54.7635 252.368C57.5364 250.981 64.4684 251.674 71.0539 247.515C72.7869 249.248 79.3724 255.487 83.8783 255.487C86.5565 253.486 85.5075 250.508 86.9977 247.515C89.3408 242.81 91.7092 240.799 94.623 236.424C98.099 231.205 100.631 228.586 103.288 222.906C106.754 211.122 106.128 200.92 108.141 186.859C111.014 166.791 114.033 149.773 116.112 135.562C116.854 126.107 117.245 120.783 117.152 111.3C117.043 100.036 117.499 92.5831 115.073 82.5316C112.37 70.6955 109.18 64.1616 103.288 53.7635C99.9761 49.0564 96.3561 42.6721 93.5832 42.6721Z" fill="white"/>
</svg>
